<svg width="500" height="1000" viewBox="0 0 393 852" fill="none" xmlns="http://www.w3.org/2000/svg">
<g opacity="0.1">
<mask id="mask0_7_281" style="mask-type:alpha" maskUnits="userSpaceOnUse" x="-550" y="-485" width="1649" height="1729">
<path d="M17.3315 -451.055L-8.54912 -434.852C-34.4297 -418.649 -86.191 -386.243 -104.642 -340.424C-123.093 -294.604 -108.234 -235.371 -115.581 -185.081C-122.929 -134.79 -152.483 -93.4418 -204.244 -61.036C-256.006 -28.6303 -329.974 -5.16701 -359.528 36.1812C-389.083 77.5294 -374.223 136.762 -353.812 198.231C-333.401 259.7 -307.438 323.404 -325.889 369.224C-344.34 415.043 -407.205 442.978 -442.311 482.09C-477.417 521.203 -484.765 571.493 -488.439 596.639L-492.112 621.784" stroke="#DCDCDC" stroke-width="2"/>
<path d="M74.198 -418.352L48.3173 -402.149C22.4367 -385.947 -29.3245 -353.541 -47.7755 -307.721C-66.2265 -261.902 -51.3672 -202.669 -58.7147 -152.378C-66.0623 -102.088 -95.6167 -60.7393 -147.378 -28.3336C-199.139 4.07215 -273.107 27.5354 -302.662 68.8836C-332.216 110.232 -317.357 169.465 -296.946 230.934C-276.535 292.402 -250.572 356.107 -269.023 401.926C-287.474 447.746 -350.339 475.68 -385.445 514.793C-420.551 553.905 -427.898 604.196 -431.572 629.341L-435.246 654.487" stroke="#DCDCDC" stroke-width="2"/>
<path d="M131.065 -385.65L105.184 -369.447C79.3034 -353.244 27.5422 -320.838 9.0912 -275.019C-9.35977 -229.2 5.49953 -169.967 -1.84802 -119.676C-9.19557 -69.3852 -38.75 -28.037 -90.5112 4.36872C-142.272 36.7745 -216.241 60.2377 -245.795 101.586C-275.349 142.934 -260.49 202.167 -240.079 263.636C-219.668 325.105 -193.705 388.809 -212.156 434.628C-230.607 480.448 -293.472 508.382 -328.578 547.495C-363.684 586.607 -371.032 636.898 -374.705 662.043L-378.379 687.189" stroke="#DCDCDC" stroke-width="2"/>
<path d="M187.931 -352.948L162.05 -336.745C136.17 -320.542 84.4086 -288.136 65.9577 -242.317C47.5067 -196.497 62.366 -137.264 55.0184 -86.9736C47.6709 -36.6829 18.1165 4.66528 -33.6448 37.071C-85.406 69.4768 -159.374 92.94 -188.928 134.288C-218.483 175.636 -203.624 234.87 -183.213 296.338C-162.802 357.807 -136.839 421.511 -155.29 467.331C-173.741 513.15 -236.605 541.085 -271.712 580.197C-306.818 619.31 -314.165 669.6 -317.839 694.746L-321.513 719.891" stroke="#DCDCDC" stroke-width="2"/>
<path d="M244.798 -320.245L218.917 -304.042C193.036 -287.84 141.275 -255.434 122.824 -209.614C104.373 -163.795 119.232 -104.562 111.885 -54.2712C104.537 -3.98059 74.9829 37.3676 23.2217 69.7733C-28.5396 102.179 -102.508 125.642 -132.062 166.991C-161.616 208.339 -146.757 267.572 -126.346 329.041C-105.935 390.509 -79.9724 454.214 -98.4234 500.033C-116.874 545.852 -179.739 573.787 -214.845 612.9C-249.951 652.012 -257.299 702.303 -260.973 727.448L-264.646 752.593" stroke="#DCDCDC" stroke-width="2"/>
<path d="M301.664 -287.543L275.784 -271.34C249.903 -255.137 198.142 -222.731 179.691 -176.912C161.24 -131.093 176.099 -71.8594 168.752 -21.5688C161.404 28.7218 131.85 70.07 80.0884 102.476C28.3272 134.882 -45.6409 158.345 -75.1953 199.693C-104.75 241.041 -89.8904 300.274 -69.4794 361.743C-49.0684 423.212 -23.1057 486.916 -41.5566 532.735C-60.0076 578.555 -122.872 606.489 -157.978 645.602C-193.084 684.715 -200.432 735.005 -204.106 760.151L-207.78 785.296" stroke="#DCDCDC" stroke-width="2"/>
<path d="M358.531 -254.841L332.65 -238.638C306.769 -222.435 255.008 -190.029 236.557 -144.21C218.106 -98.3902 232.966 -39.1571 225.618 11.1335C218.27 61.4242 188.716 102.772 136.955 135.178C85.1936 167.584 11.2255 191.047 -18.3289 232.395C-47.8833 273.744 -33.024 332.977 -12.6129 394.445C7.79807 455.914 33.7608 519.618 15.3098 565.438C-3.14115 611.257 -66.0058 639.192 -101.112 678.304C-136.218 717.417 -143.566 767.708 -147.239 792.853L-150.913 817.998" stroke="#DCDCDC" stroke-width="2"/>
<path d="M415.397 -222.138L389.517 -205.935C363.636 -189.732 311.875 -157.327 293.424 -111.507C274.973 -65.6879 289.832 -6.45481 282.484 43.8358C275.137 94.1265 245.583 135.475 193.821 167.88C142.06 200.286 68.0919 223.749 38.5375 265.098C8.98313 306.446 23.8424 365.679 44.2534 427.148C64.6645 488.616 90.6272 552.321 72.1762 598.14C53.7252 643.959 -9.13944 671.894 -44.2456 711.007C-79.3517 750.119 -86.6992 800.41 -90.373 825.555L-94.0468 850.7" stroke="#DCDCDC" stroke-width="2"/>
<path d="M472.264 -189.436L446.383 -173.233C420.502 -157.03 368.741 -124.624 350.29 -78.8049C331.839 -32.9855 346.698 26.2476 339.351 76.5382C332.003 126.829 302.449 168.177 250.688 200.583C198.926 232.989 124.958 256.452 95.404 297.8C65.8496 339.148 80.7089 398.381 101.12 459.85C121.531 521.319 147.494 585.023 129.043 630.842C110.592 676.662 47.727 704.596 12.6209 743.709C-22.4852 782.822 -29.8328 833.112 -33.5065 858.257L-37.1803 883.403" stroke="#DCDCDC" stroke-width="2"/>
<path d="M529.13 -156.734L503.249 -140.531C477.369 -124.328 425.608 -91.9221 407.157 -46.1026C388.706 -0.283219 403.565 58.9499 396.217 109.241C388.87 159.531 359.315 200.879 307.554 233.285C255.793 265.691 181.825 289.154 152.27 330.502C122.716 371.851 137.575 431.084 157.986 492.552C178.397 554.021 204.36 617.725 185.909 663.545C167.458 709.364 104.594 737.299 69.4874 776.411C34.3813 815.524 27.0338 865.815 23.36 890.96L19.6862 916.105" stroke="#DCDCDC" stroke-width="2"/>
<path d="M585.997 -124.031L560.116 -107.828C534.236 -91.6254 482.474 -59.2197 464.023 -13.4002C445.572 32.4192 460.432 91.6523 453.084 141.943C445.737 192.234 416.182 233.582 364.421 265.987C312.66 298.393 238.692 321.857 209.137 363.205C179.583 404.553 194.442 463.786 214.853 525.255C235.264 586.723 261.227 650.428 242.776 696.247C224.325 742.067 161.46 770.001 126.354 809.114C91.248 848.226 83.9005 898.517 80.2267 923.662L76.5529 948.808" stroke="#DCDCDC" stroke-width="2"/>
<path d="M642.863 -91.3288L616.983 -75.126C591.102 -58.9231 539.341 -26.5173 520.89 19.3021C502.439 65.1215 517.298 124.355 509.951 174.645C502.603 224.936 473.049 266.284 421.287 298.69C369.526 331.096 295.558 354.559 266.004 395.907C236.449 437.255 251.309 496.488 271.72 557.957C292.131 619.426 318.093 683.13 299.642 728.949C281.191 774.769 218.327 802.703 183.221 841.816C148.114 880.929 140.767 931.219 137.093 956.364L133.419 981.51" stroke="#DCDCDC" stroke-width="2"/>
<path d="M699.73 -58.6264L673.849 -42.4236C647.968 -26.2207 596.207 6.18505 577.756 52.0045C559.305 97.8239 574.165 157.057 566.817 207.348C559.469 257.638 529.915 298.986 478.154 331.392C426.393 363.798 352.424 387.261 322.87 428.609C293.316 469.958 308.175 529.191 328.586 590.659C348.997 652.128 374.96 715.832 356.509 761.652C338.058 807.471 275.193 835.406 240.087 874.518C204.981 913.631 197.633 963.922 193.96 989.067L190.286 1014.21" stroke="#DCDCDC" stroke-width="2"/>
<path d="M756.596 -25.9241L730.716 -9.72122C704.835 6.48165 653.074 38.8874 634.623 84.7068C616.172 130.526 631.031 189.759 623.683 240.05C616.336 290.341 586.782 331.689 535.02 364.095C483.259 396.5 409.291 419.964 379.737 461.312C350.182 502.66 365.041 561.893 385.452 623.362C405.863 684.83 431.826 748.535 413.375 794.354C394.924 840.174 332.06 868.108 296.954 907.221C261.847 946.333 254.5 996.624 250.826 1021.77L247.152 1046.91" stroke="#DCDCDC" stroke-width="2"/>
<path d="M813.463 6.77826L787.582 22.9811C761.702 39.184 709.94 71.5897 691.489 117.409C673.038 163.229 687.898 222.462 680.55 272.752C673.203 323.043 643.648 364.391 591.887 396.797C540.126 429.203 466.158 452.666 436.603 494.014C407.049 535.362 421.908 594.595 442.319 656.064C462.73 717.533 488.693 781.237 470.242 827.057C451.791 872.876 388.926 900.81 353.82 939.923C318.714 979.036 311.367 1029.33 307.693 1054.47L304.019 1079.62" stroke="#DCDCDC" stroke-width="2"/>
<path d="M870.329 39.4805L844.449 55.6834C818.568 71.8863 766.807 104.292 748.356 150.111C729.905 195.931 744.764 255.164 737.417 305.455C730.069 355.745 700.515 397.093 648.753 429.499C596.992 461.905 523.024 485.368 493.47 526.716C463.915 568.065 478.775 627.298 499.186 688.766C519.597 750.235 545.559 813.939 527.108 859.759C508.657 905.578 445.793 933.513 410.687 972.625C375.581 1011.74 368.233 1062.03 364.559 1087.17L360.885 1112.32" stroke="#DCDCDC" stroke-width="2"/>
<path d="M927.196 72.1829L901.315 88.3858C875.435 104.589 823.673 136.994 805.222 182.814C786.771 228.633 801.631 287.866 794.283 338.157C786.936 388.448 757.381 429.796 705.62 462.202C653.859 494.607 579.891 518.071 550.336 559.419C520.782 600.767 535.641 660 556.052 721.469C576.463 782.937 602.426 846.642 583.975 892.461C565.524 938.281 502.659 966.215 467.553 1005.33C432.447 1044.44 425.099 1094.73 421.426 1119.88L417.752 1145.02" stroke="#DCDCDC" stroke-width="2"/>
<path d="M984.062 104.885L958.182 121.088C932.301 137.291 880.54 169.697 862.089 215.516C843.638 261.336 858.497 320.569 851.15 370.859C843.802 421.15 814.248 462.498 762.486 494.904C710.725 527.31 636.757 550.773 607.203 592.121C577.648 633.469 592.508 692.702 612.919 754.171C633.33 815.64 659.292 879.344 640.841 925.164C622.39 970.983 559.526 998.918 524.42 1038.03C489.313 1077.14 481.966 1127.43 478.292 1152.58L474.618 1177.72" stroke="#DCDCDC" stroke-width="2"/>
</mask>
<g mask="url(#mask0_7_281)">
<path d="M-333.963 102.178C-399.883 184.128 -365.523 373.915 -340.102 458.565C-266.882 695.176 -180.561 450.443 -83.6988 719.643C-32.1997 862.769 316.197 1028.48 419.33 1126.76C522.463 1225.04 603.409 1094.87 561.554 971.269C519.699 847.67 515.375 717.324 644.366 664.184C773.356 611.045 810.492 495.097 809.184 338.98C807.876 182.864 617.57 308.457 522.948 315.48C428.327 322.503 380.855 239.319 360.595 53.5294C340.336 -132.26 131.339 -82.5243 -30.5086 -122.996C-192.356 -163.468 -251.562 -0.260319 -333.963 102.178Z" fill="#A9A9A9" stroke="black"/>
</g>
<path d="M-333.963 102.178C-399.883 184.128 -365.523 373.915 -340.102 458.565C-266.882 695.176 -180.561 450.443 -83.6988 719.643C-32.1997 862.769 316.197 1028.48 419.33 1126.76C522.463 1225.04 603.409 1094.87 561.554 971.269C519.699 847.67 515.375 717.324 644.366 664.184C773.356 611.045 810.492 495.097 809.184 338.98C807.876 182.864 617.57 308.457 522.948 315.48C428.327 322.503 380.855 239.319 360.595 53.5294C340.336 -132.26 131.339 -82.5243 -30.5086 -122.996C-192.356 -163.468 -251.562 -0.260319 -333.963 102.178Z" stroke="#A9A9A9" stroke-width="2"/>
</g>
</svg>
