<svg width="40" height="46" viewBox="0 0 40 46" fill="none" xmlns="http://www.w3.org/2000/svg">
<path d="M10.8387 8.88992H14.0484V5.08346C14.0484 4.49207 14.2312 4.02432 14.5968 3.68024C14.9731 3.3254 15.4839 3.14798 16.129 3.14798H23.8548C24.5 3.14798 25.0108 3.3254 25.3871 3.68024C25.7634 4.02432 25.9516 4.49207 25.9516 5.08346V8.88992H29.1452V4.92217C29.1452 3.42755 28.6828 2.25551 27.7581 1.40605C26.8441 0.54583 25.5968 0.115723 24.0161 0.115723H15.9516C14.371 0.115723 13.1237 0.54583 12.2097 1.40605C11.2957 2.25551 10.8387 3.42755 10.8387 4.92217V8.88992ZM1.33871 10.9222H38.6613C39.0376 10.9222 39.3548 10.7931 39.6129 10.5351C39.871 10.2663 40 9.94906 40 9.58346C40 9.20712 39.871 8.88992 39.6129 8.63185C39.3548 8.36303 39.0376 8.22863 38.6613 8.22863H1.33871C0.983871 8.22863 0.672043 8.36303 0.403226 8.63185C0.134409 8.90067 0 9.21787 0 9.58346C0 9.94906 0.134409 10.2663 0.403226 10.5351C0.672043 10.7931 0.983871 10.9222 1.33871 10.9222ZM35.4032 10.5028H4.62903L6.08065 41.8093C6.1129 42.6372 6.30108 43.3469 6.64516 43.9383C7 44.5297 7.48387 44.9813 8.09677 45.2931C8.70968 45.605 9.43011 45.7609 10.2581 45.7609H29.7742C30.5914 45.7609 31.3065 45.605 31.9194 45.2931C32.543 44.9813 33.0269 44.5297 33.371 43.9383C33.7258 43.3469 33.9194 42.6372 33.9516 41.8093L35.4032 10.5028ZM13.4839 39.8254C13.1505 39.8254 12.8817 39.7233 12.6774 39.519C12.4731 39.3254 12.3656 39.0673 12.3548 38.7448L11.6774 15.6802C11.6774 15.3577 11.7796 15.0996 11.9839 14.906C12.1882 14.7125 12.4624 14.6157 12.8065 14.6157C13.129 14.6157 13.3925 14.7125 13.5968 14.906C13.8118 15.0888 13.9247 15.3415 13.9355 15.6641L14.5968 38.7448C14.6075 39.0566 14.5108 39.3147 14.3065 39.519C14.1022 39.7233 13.828 39.8254 13.4839 39.8254ZM20.0161 39.8254C19.672 39.8254 19.3925 39.7233 19.1774 39.519C18.9624 39.3147 18.8548 39.0566 18.8548 38.7448V15.6802C18.8548 15.3684 18.9624 15.1157 19.1774 14.9222C19.3925 14.7179 19.672 14.6157 20.0161 14.6157C20.3495 14.6157 20.6237 14.7179 20.8387 14.9222C21.0538 15.1157 21.1613 15.3684 21.1613 15.6802V38.7448C21.1613 39.0566 21.0538 39.3147 20.8387 39.519C20.6237 39.7233 20.3495 39.8254 20.0161 39.8254ZM26.5323 39.8254C26.1882 39.8254 25.914 39.7233 25.7097 39.519C25.5054 39.3254 25.4032 39.0673 25.4032 38.7448L26.0806 15.6802C26.0806 15.3577 26.1882 15.0996 26.4032 14.906C26.6183 14.7125 26.8817 14.6157 27.1935 14.6157C27.5376 14.6157 27.8118 14.7179 28.0161 14.9222C28.2312 15.1157 28.3333 15.3738 28.3226 15.6964L27.6613 38.7609C27.6505 39.0835 27.543 39.3415 27.3387 39.5351C27.1344 39.7286 26.8656 39.8254 26.5323 39.8254Z" fill="#E9473D"/>
</svg>