<svg width="57" height="57" viewBox="0 0 57 57" fill="none" xmlns="http://www.w3.org/2000/svg">
<g clip-path="url(#clip0_540_2114)">
<path d="M31.1519 13.3955C32.324 12.2234 33.9137 11.5649 35.5713 11.5649C37.2289 11.5649 38.8186 12.2234 39.9907 13.3955C41.1628 14.5676 41.8213 16.1573 41.8213 17.8149C41.8213 19.4725 41.1628 21.0622 39.9907 22.2343L24.0808 38.1442C23.3775 38.8475 22.4237 39.2426 21.4292 39.2426C20.4346 39.2426 19.4808 38.8475 18.7775 38.1442C18.0742 37.441 17.6792 36.4871 17.6792 35.4926C17.6792 34.498 18.0742 33.5442 18.7775 32.8409L31.1519 20.4666C31.3863 20.2321 31.7042 20.1004 32.0358 20.1004C32.3673 20.1004 32.6852 20.2321 32.9196 20.4666C33.1541 20.701 33.2858 21.0189 33.2858 21.3504C33.2858 21.682 33.1541 21.9999 32.9196 22.2343L20.5453 34.6087C20.3109 34.8431 20.1792 35.1611 20.1792 35.4926C20.1792 35.8241 20.3108 36.142 20.5453 36.3765C20.7797 36.6109 21.0976 36.7426 21.4292 36.7426C21.7607 36.7426 22.0786 36.6109 22.313 36.3765L38.2229 20.4666C38.5712 20.1183 38.8474 19.7049 39.0358 19.25C39.2243 18.795 39.3213 18.3074 39.3213 17.8149C39.3213 17.3225 39.2243 16.8348 39.0358 16.3798C38.8474 15.9249 38.5712 15.5115 38.2229 15.1633C37.8747 14.815 37.4613 14.5388 37.0064 14.3504C36.5514 14.1619 36.0637 14.0649 35.5713 14.0649C35.0788 14.0649 34.5912 14.1619 34.1362 14.3504C33.6813 14.5388 33.2679 14.815 32.9196 15.1633L17.0097 31.0732C15.8376 32.2453 15.1792 33.835 15.1792 35.4926C15.1792 37.1502 15.8376 38.7399 17.0097 39.912C18.1818 41.0841 19.7716 41.7426 21.4292 41.7426C23.0868 41.7426 24.6765 41.0841 25.8486 39.912L38.2229 27.5376C38.4574 27.3032 38.7753 27.1715 39.1068 27.1715C39.4383 27.1715 39.7563 27.3032 39.9907 27.5376C40.2251 27.772 40.3568 28.09 40.3568 28.4215C40.3568 28.753 40.2251 29.071 39.9907 29.3054L27.6163 41.6798C25.9754 43.3207 23.7498 44.2426 21.4292 44.2426C19.1085 44.2426 16.8829 43.3207 15.242 41.6798C13.601 40.0388 12.6792 37.8132 12.6792 35.4926C12.6792 33.1719 13.601 30.9463 15.242 29.3054L31.1519 13.3955Z" fill="black"/>
</g>
<defs>
<clipPath id="clip0_540_2114">
<rect width="40" height="40" fill="white" transform="translate(28.5 0.137207) rotate(45)"/>
</clipPath>
</defs>
</svg>
