<svg width="40" height="40" viewBox="0 0 40 40" fill="none" xmlns="http://www.w3.org/2000/svg">
<path d="M11.5625 5.28125H9.375C8.21468 5.28125 7.10188 5.74219 6.28141 6.56266C5.46094 7.38313 5 8.49593 5 9.65625V32.625C5 33.7853 5.46094 34.8981 6.28141 35.7186C7.10188 36.5391 8.21468 37 9.375 37H31.25C32.4103 37 33.5231 36.5391 34.3436 35.7186C35.1641 34.8981 35.625 33.7853 35.625 32.625V9.65625C35.625 8.49593 35.1641 7.38313 34.3436 6.56266C33.5231 5.74219 32.4103 5.28125 31.25 5.28125H29.0625V7.46875H31.25C31.8302 7.46875 32.3866 7.69922 32.7968 8.10945C33.207 8.51969 33.4375 9.07609 33.4375 9.65625V32.625C33.4375 33.2052 33.207 33.7616 32.7968 34.1718C32.3866 34.582 31.8302 34.8125 31.25 34.8125H9.375C8.79484 34.8125 8.23844 34.582 7.8282 34.1718C7.41797 33.7616 7.1875 33.2052 7.1875 32.625V9.65625C7.1875 9.07609 7.41797 8.51969 7.8282 8.10945C8.23844 7.69922 8.79484 7.46875 9.375 7.46875H11.5625V5.28125Z" fill="black"/>
<path d="M23.5938 4.1875C23.8838 4.1875 24.162 4.30273 24.3671 4.50785C24.5723 4.71297 24.6875 4.99117 24.6875 5.28125V7.46875C24.6875 7.75883 24.5723 8.03703 24.3671 8.24215C24.162 8.44727 23.8838 8.5625 23.5938 8.5625H17.0312C16.7412 8.5625 16.463 8.44727 16.2579 8.24215C16.0527 8.03703 15.9375 7.75883 15.9375 7.46875V5.28125C15.9375 4.99117 16.0527 4.71297 16.2579 4.50785C16.463 4.30273 16.7412 4.1875 17.0312 4.1875H23.5938ZM17.0312 2C16.161 2 15.3264 2.3457 14.7111 2.96106C14.0957 3.57641 13.75 4.41101 13.75 5.28125V7.46875C13.75 8.33899 14.0957 9.17359 14.7111 9.78894C15.3264 10.4043 16.161 10.75 17.0312 10.75H23.5938C24.464 10.75 25.2986 10.4043 25.9139 9.78894C26.5293 9.17359 26.875 8.33899 26.875 7.46875V5.28125C26.875 4.41101 26.5293 3.57641 25.9139 2.96106C25.2986 2.3457 24.464 2 23.5938 2H17.0312Z" fill="black"/>
</svg>