<svg width="31" height="35" viewBox="0 0 31 35" fill="none" xmlns="http://www.w3.org/2000/svg">
<path d="M6.5625 3.28125H4.375C3.21468 3.28125 2.10188 3.74219 1.28141 4.56266C0.460936 5.38313 0 6.49593 0 7.65625V30.625C0 31.7853 0.460936 32.8981 1.28141 33.7186C2.10188 34.5391 3.21468 35 4.375 35H26.25C27.4103 35 28.5231 34.5391 29.3436 33.7186C30.1641 32.8981 30.625 31.7853 30.625 30.625V7.65625C30.625 6.49593 30.1641 5.38313 29.3436 4.56266C28.5231 3.74219 27.4103 3.28125 26.25 3.28125H24.0625V5.46875H26.25C26.8302 5.46875 27.3866 5.69922 27.7968 6.10945C28.207 6.51969 28.4375 7.07609 28.4375 7.65625V30.625C28.4375 31.2052 28.207 31.7616 27.7968 32.1718C27.3866 32.582 26.8302 32.8125 26.25 32.8125H4.375C3.79484 32.8125 3.23844 32.582 2.8282 32.1718C2.41797 31.7616 2.1875 31.2052 2.1875 30.625V7.65625C2.1875 7.07609 2.41797 6.51969 2.8282 6.10945C3.23844 5.69922 3.79484 5.46875 4.375 5.46875H6.5625V3.28125Z" fill="black"/>
<path d="M18.5938 2.1875C18.8838 2.1875 19.162 2.30273 19.3671 2.50785C19.5723 2.71297 19.6875 2.99117 19.6875 3.28125V5.46875C19.6875 5.75883 19.5723 6.03703 19.3671 6.24215C19.162 6.44727 18.8838 6.5625 18.5938 6.5625H12.0312C11.7412 6.5625 11.463 6.44727 11.2579 6.24215C11.0527 6.03703 10.9375 5.75883 10.9375 5.46875V3.28125C10.9375 2.99117 11.0527 2.71297 11.2579 2.50785C11.463 2.30273 11.7412 2.1875 12.0312 2.1875H18.5938ZM12.0312 0C11.161 0 10.3264 0.345702 9.71106 0.961056C9.0957 1.57641 8.75 2.41101 8.75 3.28125V5.46875C8.75 6.33899 9.0957 7.17359 9.71106 7.78894C10.3264 8.4043 11.161 8.75 12.0312 8.75H18.5938C19.464 8.75 20.2986 8.4043 20.9139 7.78894C21.5293 7.17359 21.875 6.33899 21.875 5.46875V3.28125C21.875 2.41101 21.5293 1.57641 20.9139 0.961056C20.2986 0.345702 19.464 0 18.5938 0L12.0312 0Z" fill="black"/>
<rect x="10" y="2" width="11.375" height="5.25" rx="2.625" fill="black"/>
</svg>
