<svg width="51" height="44" viewBox="0 0 51 44" fill="none" xmlns="http://www.w3.org/2000/svg">
<path d="M2.80895 5.79358C2.80895 4.50411 3.32119 3.26746 4.23298 2.35567C5.14476 1.44388 6.38142 0.931641 7.67088 0.931641H16.6298C19.735 0.931641 22.3345 2.74676 24.1204 4.76933C25.4494 6.27329 27.0538 7.41422 28.7393 7.41422H43.3251C44.6145 7.41422 45.8512 7.92646 46.763 8.83825C47.6748 9.75004 48.187 10.9867 48.187 12.2762V14.3506C50.0345 15.2095 51.2338 17.19 50.9615 19.3616L48.8871 35.97C48.642 37.9311 47.6887 39.7351 46.2065 41.0424C44.7243 42.3497 42.8154 43.0702 40.839 43.0684H10.1537C8.17845 43.0687 6.27113 42.3474 4.79027 41.0402C3.30941 39.7331 2.357 37.93 2.11207 35.97L0.037645 19.3616C-0.0901493 18.3406 0.109308 17.3053 0.607309 16.4048C1.10531 15.5043 1.87617 14.7851 2.80895 14.3506V5.79358ZM6.05024 13.8968H44.9457V12.2762C44.9457 11.8463 44.775 11.4341 44.471 11.1302C44.1671 10.8263 43.7549 10.6555 43.3251 10.6555H28.7393C25.6147 10.6555 23.1967 8.61674 21.6927 6.91506C20.2276 5.25552 18.432 4.17293 16.6298 4.17293H7.67088C7.24106 4.17293 6.82884 4.34368 6.52491 4.64761C6.22098 4.95154 6.05024 5.36375 6.05024 5.79358V13.8968ZM4.86068 17.1381C4.63093 17.1382 4.40382 17.1871 4.19441 17.2816C3.985 17.3761 3.79808 17.5141 3.64605 17.6863C3.49402 17.8586 3.38035 18.0612 3.31259 18.2808C3.24482 18.5003 3.22451 18.7317 3.253 18.9597L5.32743 35.5681C5.47442 36.7443 6.04605 37.8263 6.93483 38.6106C7.82362 39.395 8.96833 39.8276 10.1537 39.8271H40.8422C42.0276 39.8276 43.1723 39.395 44.0611 38.6106C44.9499 37.8263 45.5215 36.7443 45.6685 35.5681L47.7429 18.9597C47.7714 18.7317 47.7511 18.5003 47.6834 18.2808C47.6156 18.0612 47.5019 17.8586 47.3499 17.6863C47.1979 17.5141 47.0109 17.3761 46.8015 17.2816C46.5921 17.1871 46.365 17.1382 46.1353 17.1381H4.86068Z" fill="white"/>
</svg>
