<svg width="38" height="35" viewBox="0 0 38 35" fill="none" xmlns="http://www.w3.org/2000/svg">
<path d="M20.7676 0.750033C20.2988 0.281355 19.663 0.0180664 19.0001 0.0180664C18.3372 0.0180664 17.7014 0.281355 17.2326 0.750033L0.615114 17.365C0.498894 17.4813 0.406704 17.6192 0.343806 17.7711C0.280908 17.9229 0.248535 18.0857 0.248535 18.25C0.248535 18.4144 0.280908 18.5771 0.343806 18.729C0.406704 18.8808 0.498894 19.0188 0.615114 19.135C0.849831 19.3697 1.16817 19.5016 1.50011 19.5016C1.66447 19.5016 1.82722 19.4692 1.97907 19.4063C2.13092 19.3434 2.26889 19.2513 2.38511 19.135L4.00011 17.5175V30.75C4.00011 31.7446 4.3952 32.6984 5.09846 33.4017C5.80172 34.1049 6.75555 34.5 7.75011 34.5H30.2501C31.2447 34.5 32.1985 34.1049 32.9018 33.4017C33.605 32.6984 34.0001 31.7446 34.0001 30.75V17.5175L35.6151 19.135C35.8498 19.3697 36.1682 19.5016 36.5001 19.5016C36.8321 19.5016 37.1504 19.3697 37.3851 19.135C37.6198 18.9003 37.7517 18.582 37.7517 18.25C37.7517 17.9181 37.6198 17.5997 37.3851 17.365L31.5001 11.4825V3.25003C31.5001 2.91851 31.3684 2.60057 31.134 2.36615C30.8996 2.13173 30.5816 2.00003 30.2501 2.00003H27.7501C27.4186 2.00003 27.1006 2.13173 26.8662 2.36615C26.6318 2.60057 26.5001 2.91851 26.5001 3.25003V6.48253L20.7676 0.750033ZM31.5001 15.0175V30.75C31.5001 31.0816 31.3684 31.3995 31.134 31.6339C30.8996 31.8683 30.5816 32 30.2501 32H7.75011C7.41859 32 7.10065 31.8683 6.86623 31.6339C6.63181 31.3995 6.50011 31.0816 6.50011 30.75V15.0175L19.0001 2.51753L31.5001 15.0175Z" fill="black"/>
</svg>
