<svg width="40" height="40" viewBox="0 0 40 40" fill="none" xmlns="http://www.w3.org/2000/svg">
<path d="M21.7675 3.75003C21.2987 3.28135 20.6629 3.01807 20 3.01807C19.3371 3.01807 18.7013 3.28135 18.2325 3.75003L1.61499 20.365C1.49877 20.4813 1.40658 20.6192 1.34368 20.7711C1.28079 20.9229 1.24841 21.0857 1.24841 21.25C1.24841 21.4144 1.28079 21.5771 1.34368 21.729C1.40658 21.8808 1.49877 22.0188 1.61499 22.135C1.84971 22.3698 2.16805 22.5016 2.49999 22.5016C2.66435 22.5016 2.8271 22.4692 2.97895 22.4063C3.1308 22.3434 3.26877 22.2513 3.38499 22.135L20 5.51753L36.615 22.135C36.8497 22.3698 37.1681 22.5016 37.5 22.5016C37.8319 22.5016 38.1503 22.3698 38.385 22.135C38.6197 21.9003 38.7516 21.582 38.7516 21.25C38.7516 20.9181 38.6197 20.5998 38.385 20.365L32.5 14.4825V6.25003C32.5 5.91851 32.3683 5.60057 32.1339 5.36615C31.8995 5.13173 31.5815 5.00003 31.25 5.00003H28.75C28.4185 5.00003 28.1005 5.13173 27.8661 5.36615C27.6317 5.60057 27.5 5.91851 27.5 6.25003V9.48253L21.7675 3.75003Z" fill="black"/>
<path d="M20 8.23242L35 23.2324V33.7499C35 34.7445 34.6049 35.6983 33.9017 36.4016C33.1984 37.1048 32.2446 37.4999 31.25 37.4999H8.75C7.75544 37.4999 6.80161 37.1048 6.09835 36.4016C5.39509 35.6983 5 34.7445 5 33.7499V23.2324L20 8.23242Z" fill="black"/>
</svg>
