<svg width="393" height="364" viewBox="0 0 393 364" fill="none" xmlns="http://www.w3.org/2000/svg">
<g opacity="0.9">
<mask id="mask0_7_282" style="mask-type:alpha" maskUnits="userSpaceOnUse" x="-282" y="-367" width="624" height="599">
<path d="M-280.732 64.0438L-274.289 73.2384C-267.846 82.433 -254.959 100.822 -237.782 106.724C-220.605 112.625 -199.138 106.039 -180.531 107.778C-161.923 109.518 -146.177 119.582 -133.29 137.971C-120.403 156.36 -110.377 183.074 -94.6301 193.138C-78.8832 203.202 -57.4158 196.616 -35.2333 187.949C-13.0508 179.282 9.84675 168.533 27.0238 174.435C44.2008 180.337 55.6573 202.888 70.6891 215.034C85.7209 227.179 104.328 228.918 113.632 229.788L122.935 230.657" stroke="#DCDCDC" stroke-width="2"/>
<path d="M-269.808 42.5385L-263.365 51.7331C-256.922 60.9276 -244.035 79.3167 -226.858 85.2183C-209.681 91.1199 -188.213 84.534 -169.606 86.2731C-150.999 88.0122 -135.252 98.0763 -122.366 116.465C-109.479 134.855 -99.4527 161.569 -83.7058 171.633C-67.9589 181.697 -46.4915 175.111 -24.309 166.444C-2.12649 157.777 20.7711 147.028 37.9481 152.93C55.1251 158.831 66.5816 181.383 81.6134 193.528C96.6452 205.674 115.252 207.413 124.556 208.282L133.86 209.152" stroke="#DCDCDC" stroke-width="2"/>
<path d="M-258.884 21.0332L-252.441 30.2277C-245.997 39.4223 -233.111 57.8114 -215.934 63.713C-198.757 69.6146 -177.289 63.0287 -158.682 64.7677C-140.075 66.5068 -124.328 76.5709 -111.442 94.96C-98.555 113.349 -88.5286 140.063 -72.7817 150.127C-57.0348 160.192 -35.5674 153.606 -13.3849 144.938C8.79758 136.271 31.6951 125.523 48.8722 131.424C66.0492 137.326 77.5057 159.878 92.5375 172.023C107.569 184.168 126.176 185.907 135.48 186.777L144.784 187.646" stroke="#DCDCDC" stroke-width="2"/>
<path d="M-247.96 -0.472192L-241.517 8.72237C-235.073 17.9169 -222.187 36.3061 -205.01 42.2076C-187.833 48.1092 -166.365 41.5233 -147.758 43.2624C-129.151 45.0015 -113.404 55.0656 -100.518 73.4547C-87.6309 91.8438 -77.6045 118.558 -61.8576 128.622C-46.1108 138.686 -24.6433 132.1 -2.46084 123.433C19.7217 114.766 42.6192 104.017 59.7962 109.919C76.9733 115.821 88.4297 138.372 103.462 150.518C118.493 162.663 137.101 164.402 146.404 165.272L155.708 166.141" stroke="#DCDCDC" stroke-width="2"/>
<path d="M-237.036 -21.9775L-230.593 -12.783C-224.149 -3.58841 -211.263 14.8007 -194.086 20.7023C-176.909 26.6039 -155.441 20.018 -136.834 21.7571C-118.227 23.4961 -102.48 33.5602 -89.5934 51.9494C-76.7068 70.3385 -66.6805 97.0526 -50.9336 107.117C-35.1867 117.181 -13.7193 110.595 8.46323 101.928C30.6457 93.2605 53.5433 82.5121 70.7203 88.4137C87.8973 94.3153 99.3538 116.867 114.386 129.012C129.417 141.158 148.025 142.897 157.328 143.766L166.632 144.636" stroke="#DCDCDC" stroke-width="2"/>
<path d="M-226.112 -43.4829L-219.668 -34.2883C-213.225 -25.0937 -200.338 -6.70462 -183.161 -0.803028C-165.984 5.09857 -144.517 -1.48737 -125.91 0.251717C-107.303 1.9908 -91.5557 12.0549 -78.6691 30.444C-65.7825 48.8331 -55.7561 75.5473 -40.0092 85.6114C-24.2623 95.6755 -2.79491 89.0896 19.3876 80.4224C41.5701 71.7552 64.4676 61.0067 81.6447 66.9083C98.8217 72.8099 110.278 95.3616 125.31 107.507C140.342 119.652 158.949 121.391 168.253 122.261L177.556 123.13" stroke="#DCDCDC" stroke-width="2"/>
<path d="M-215.188 -64.9882L-208.744 -55.7937C-202.301 -46.5991 -189.414 -28.21 -172.237 -22.3084C-155.06 -16.4068 -133.593 -22.9927 -114.986 -21.2537C-96.3786 -19.5146 -80.6317 -9.45047 -67.745 8.93865C-54.8584 27.3278 -44.8321 54.0419 -29.0852 64.106C-13.3383 74.1701 8.12913 67.5842 30.3116 58.917C52.4941 50.2498 75.3917 39.5014 92.5687 45.403C109.746 51.3046 121.202 73.8562 136.234 86.0015C151.266 98.1469 169.873 99.886 179.177 100.756L188.48 101.625" stroke="#DCDCDC" stroke-width="2"/>
<path d="M-204.264 -86.4936L-197.82 -77.299C-191.377 -68.1044 -178.49 -49.7153 -161.313 -43.8137C-144.136 -37.9121 -122.669 -44.4981 -104.062 -42.759C-85.4545 -41.0199 -69.7076 -30.9558 -56.821 -12.5667C-43.9344 5.82247 -33.908 32.5366 -18.1611 42.6007C-2.41422 52.6648 19.0532 46.0789 41.2357 37.4117C63.4182 28.7445 86.3157 17.9961 103.493 23.8977C120.67 29.7992 132.126 52.3509 147.158 64.4962C162.19 76.6416 180.797 78.3807 190.101 79.2502L199.404 80.1198" stroke="#DCDCDC" stroke-width="2"/>
<path d="M-193.339 -107.999L-186.896 -98.8043C-180.453 -89.6098 -167.566 -71.2206 -150.389 -65.3191C-133.212 -59.4175 -111.745 -66.0034 -93.1376 -64.2643C-74.5304 -62.5252 -58.7835 -52.4611 -45.8969 -34.072C-33.0103 -15.6829 -22.9839 11.0313 -7.23704 21.0954C8.50985 31.1595 29.9773 24.5735 52.1598 15.9064C74.3423 7.23916 97.2398 -3.50928 114.417 2.39231C131.594 8.29391 143.05 30.8455 158.082 42.9909C173.114 55.1363 191.721 56.8753 201.025 57.7449L210.328 58.6144" stroke="#DCDCDC" stroke-width="2"/>
<path d="M-182.415 -129.504L-175.972 -120.31C-169.528 -111.115 -156.642 -92.726 -139.465 -86.8244C-122.288 -80.9228 -100.82 -87.5087 -82.2132 -85.7696C-63.6061 -84.0306 -47.8592 -73.9665 -34.9726 -55.5773C-22.086 -37.1882 -12.0596 -10.4741 3.68728 -0.409963C19.4342 9.65414 40.9016 3.0682 63.0841 -5.59899C85.2666 -14.2662 108.164 -25.0146 125.341 -19.113C142.518 -13.2114 153.975 9.3402 169.006 21.4856C184.038 33.6309 202.645 35.37 211.949 36.2395L221.253 37.1091" stroke="#DCDCDC" stroke-width="2"/>
<path d="M-171.491 -151.01L-165.048 -141.815C-158.604 -132.62 -145.718 -114.231 -128.541 -108.33C-111.364 -102.428 -89.8963 -109.014 -71.2892 -107.275C-52.682 -105.536 -36.9351 -95.4718 -24.0485 -77.0827C-11.1619 -58.6936 -1.13554 -31.9794 14.6113 -21.9153C30.3582 -11.8512 51.8257 -18.4372 74.0082 -27.1044C96.1906 -35.7715 119.088 -46.52 136.265 -40.6184C153.442 -34.7168 164.899 -12.1652 179.931 -0.0198129C194.962 12.1255 213.57 13.8646 222.873 14.7342L232.177 15.6037" stroke="#DCDCDC" stroke-width="2"/>
<path d="M-160.567 -172.515L-154.124 -163.32C-147.68 -154.126 -134.794 -135.737 -117.617 -129.835C-100.44 -123.933 -78.9723 -130.519 -60.3651 -128.78C-41.7579 -127.041 -26.0111 -116.977 -13.1244 -98.588C-0.237818 -80.1989 9.78853 -53.4847 25.5354 -43.4206C41.2823 -33.3565 62.7497 -39.9425 84.9322 -48.6097C107.115 -57.2769 130.012 -68.0253 147.189 -62.1237C164.366 -56.2221 175.823 -33.6705 190.855 -21.5251C205.886 -9.37976 224.494 -7.64068 233.797 -6.77114L243.101 -5.9016" stroke="#DCDCDC" stroke-width="2"/>
<path d="M-149.643 -194.02L-143.2 -184.826C-136.756 -175.631 -123.87 -157.242 -106.693 -151.34C-89.5156 -145.439 -68.0482 -152.025 -49.441 -150.286C-30.8339 -148.547 -15.087 -138.483 -2.20035 -120.093C10.6863 -101.704 20.7126 -74.9901 36.4595 -64.926C52.2064 -54.8619 73.6738 -61.4478 95.8563 -70.115C118.039 -78.7822 140.936 -89.5307 158.113 -83.6291C175.29 -77.7275 186.747 -55.1758 201.779 -43.0305C216.811 -30.8851 235.418 -29.146 244.721 -28.2765L254.025 -27.407" stroke="#DCDCDC" stroke-width="2"/>
</mask>
<g mask="url(#mask0_7_282)">
<path d="M-59.9592 160.986C-28.6095 183.63 40.4265 167.394 71.0257 156.445C156.514 125.046 65.0008 98.0156 162.006 57.3137C213.581 35.6737 267.787 -95.4199 301.91 -135.165C336.033 -174.91 286.689 -202.152 242.1 -184.426C197.512 -166.699 149.731 -162.626 127.758 -208.979C105.785 -255.331 62.4999 -266.757 5.19786 -263.3C-52.1041 -259.843 -2.35653 -192.356 2.02666 -157.744C6.40982 -123.132 -23.2309 -104.114 -91.0675 -93.132C-158.904 -82.1499 -136.656 -6.35321 -148.431 53.85C-160.206 114.053 -99.1463 132.682 -59.9592 160.986Z" fill="black" stroke="black"/>
</g>
<path d="M-59.9592 160.986C-28.6095 183.63 40.4265 167.394 71.0257 156.445C156.514 125.046 65.0008 98.0156 162.006 57.3137C213.581 35.6737 267.787 -95.4199 301.91 -135.165C336.033 -174.91 286.689 -202.152 242.1 -184.426C197.512 -166.699 149.731 -162.626 127.758 -208.979C105.785 -255.331 62.4999 -266.757 5.19786 -263.3C-52.1041 -259.843 -2.35653 -192.356 2.02666 -157.744C6.40982 -123.132 -23.2309 -104.114 -91.0675 -93.132C-158.904 -82.1499 -136.656 -6.35321 -148.431 53.85C-160.206 114.053 -99.1463 132.682 -59.9592 160.986Z" stroke="black" stroke-width="2"/>
</g>
</svg>
