<svg width="41" height="41" viewBox="0 0 41 41" fill="none" xmlns="http://www.w3.org/2000/svg">
<g clip-path="url(#clip0_540_1137)">
<path d="M14.3075 31.9128C14.6575 31.7061 15.04 31.5078 15.455 31.3178C15.104 31.8402 14.7286 32.3458 14.33 32.8328C13.63 33.6753 13.085 34.1228 12.7425 34.2628L12.655 34.2928C12.6302 34.2581 12.6085 34.2213 12.59 34.1828C12.45 33.9078 12.455 33.6428 12.69 33.2828C12.955 32.8703 13.4875 32.3978 14.3075 31.9128ZM20.445 27.7953C20.1483 27.857 19.8517 27.922 19.555 27.9903C19.9958 27.127 20.4126 26.2517 20.805 25.3653C21.2001 26.0977 21.6254 26.8133 22.08 27.5103C21.5367 27.5903 20.9917 27.6853 20.445 27.7953ZM26.7575 30.1428C26.3699 29.8287 26.0064 29.4861 25.67 29.1178C26.2433 29.1295 26.7533 29.1745 27.2 29.2528C27.9925 29.3953 28.365 29.6203 28.495 29.7753C28.535 29.8192 28.558 29.8759 28.56 29.9353C28.5508 30.1116 28.4994 30.2831 28.41 30.4353C28.3603 30.5575 28.2792 30.6644 28.175 30.7453C28.124 30.7784 28.0626 30.7917 28.0025 30.7828C27.7775 30.7753 27.3575 30.6178 26.7575 30.1428ZM21.195 18.2778C21.095 18.8878 20.925 19.5878 20.695 20.3503C20.6105 20.0647 20.5363 19.7762 20.4725 19.4853C20.2825 18.6028 20.255 17.9103 20.3575 17.4303C20.4525 16.9878 20.6325 16.8103 20.8475 16.7228C20.9626 16.6714 21.0848 16.6377 21.21 16.6228C21.2425 16.6978 21.28 16.8528 21.29 17.1178C21.3033 17.4228 21.2717 17.8103 21.195 18.2803V18.2778Z" fill="black"/>
<path fill-rule="evenodd" clip-rule="evenodd" d="M10.5 0.852783H23.7325C24.3955 0.852925 25.0313 1.11641 25.5 1.58528L34.7675 10.8528C35.2364 11.3215 35.4999 11.9573 35.5 12.6203V35.8528C35.5 37.1789 34.9732 38.4506 34.0355 39.3883C33.0979 40.326 31.8261 40.8528 30.5 40.8528H10.5C9.17392 40.8528 7.90215 40.326 6.96447 39.3883C6.02678 38.4506 5.5 37.1789 5.5 35.8528V5.85278C5.5 4.5267 6.02678 3.25493 6.96447 2.31725C7.90215 1.37957 9.17392 0.852783 10.5 0.852783ZM24.25 4.60278V9.60278C24.25 10.2658 24.5134 10.9017 24.9822 11.3706C25.4511 11.8394 26.087 12.1028 26.75 12.1028H31.75L24.25 4.60278ZM10.9125 35.0228C11.1375 35.4728 11.4875 35.8803 12.0075 36.0703C12.525 36.2578 13.0375 36.1703 13.4575 35.9953C14.2525 35.6703 15.045 34.9053 15.7725 34.0303C16.605 33.0278 17.48 31.7128 18.325 30.2553C19.9565 29.7724 21.627 29.4328 23.3175 29.2403C24.0675 30.1978 24.8425 31.0228 25.5925 31.6153C26.2925 32.1653 27.1 32.6228 27.9275 32.6578C28.3782 32.6794 28.8242 32.5587 29.2025 32.3128C29.59 32.0603 29.8775 31.6953 30.0875 31.2728C30.3125 30.8203 30.45 30.3478 30.4325 29.8653C30.4174 29.3894 30.2411 28.9328 29.9325 28.5703C29.3675 27.8953 28.4425 27.5703 27.5325 27.4078C26.4285 27.2377 25.3086 27.1958 24.195 27.2828C23.2552 25.9531 22.4353 24.5425 21.745 23.0678C22.37 21.4178 22.8375 19.8578 23.045 18.5828C23.135 18.0378 23.1825 17.5178 23.165 17.0478C23.1617 16.5813 23.0532 16.1215 22.8475 15.7028C22.7289 15.4717 22.5604 15.27 22.3541 15.1121C22.1478 14.9543 21.909 14.8444 21.655 14.7903C21.15 14.6828 20.63 14.7903 20.1525 14.9828C19.21 15.3578 18.7125 16.1578 18.525 17.0403C18.3425 17.8903 18.425 18.8803 18.64 19.8803C18.86 20.8953 19.235 22.0003 19.715 23.1178C18.9454 25.0265 18.0587 26.8859 17.06 28.6853C15.7719 29.0913 14.53 29.6318 13.355 30.2978C12.43 30.8478 11.6075 31.4978 11.1125 32.2653C10.5875 33.0803 10.425 34.0503 10.9125 35.0228Z" fill="black"/>
</g>
<defs>
<clipPath id="clip0_540_1137">
<rect width="40" height="40" fill="white" transform="translate(0.5 0.852783)"/>
</clipPath>
</defs>
</svg>
