<svg width="40" height="41" viewBox="0 0 40 41" fill="none" xmlns="http://www.w3.org/2000/svg">
<path d="M30.3632 1.30545C30.4793 1.18905 30.6172 1.09669 30.7691 1.03368C30.9209 0.970668 31.0837 0.938232 31.2481 0.938232C31.4126 0.938232 31.5754 0.970668 31.7272 1.03368C31.8791 1.09669 32.017 1.18905 32.1331 1.30545L39.6328 8.80512C39.7492 8.92123 39.8415 9.05916 39.9045 9.21102C39.9676 9.36288 40 9.52567 40 9.69008C40 9.85449 39.9676 10.0173 39.9045 10.1691C39.8415 10.321 39.7492 10.4589 39.6328 10.575L14.6339 35.574C14.5139 35.6931 14.371 35.7866 14.2139 35.8489L1.71444 40.8487C1.48729 40.9396 1.23845 40.9619 0.99877 40.9127C0.75909 40.8636 0.53911 40.7451 0.366101 40.5721C0.193092 40.3991 0.0746638 40.1791 0.0254973 39.9395C-0.0236692 39.6998 -0.00141142 39.4509 0.0895113 39.2238L5.08929 26.7243C5.15161 26.5672 5.24516 26.4243 5.36428 26.3044L30.3632 1.30545ZM28.0158 7.19019L33.748 12.9224L36.9804 9.69008L31.2481 3.95783L28.0158 7.19019ZM31.9806 14.6899L26.2484 8.95762L9.99908 25.2069V25.9394H11.249C11.5805 25.9394 11.8985 26.0711 12.1329 26.3055C12.3673 26.5399 12.499 26.8578 12.499 27.1893V28.4393H13.7489C14.0804 28.4393 14.3983 28.571 14.6328 28.8054C14.8672 29.0398 14.9989 29.3577 14.9989 29.6892V30.9392H15.7313L31.9806 14.6899ZM7.57918 27.6268L7.3142 27.8918L3.49436 37.4439L13.0464 33.624L13.3114 33.359C13.073 33.27 12.8674 33.1102 12.7222 32.9011C12.5771 32.6921 12.4992 32.4436 12.499 32.1891V30.9392H11.249C10.9175 30.9392 10.5996 30.8075 10.3652 30.5731C10.1308 30.3386 9.99908 30.0207 9.99908 29.6892V28.4393H8.74913C8.49459 28.4391 8.24618 28.3612 8.03711 28.216C7.82803 28.0708 7.66827 27.8652 7.57918 27.6268Z" fill="black"/>
</svg>
