<svg width="20" height="21" viewBox="0 0 20 21" fill="none" xmlns="http://www.w3.org/2000/svg">
<path d="M10 0.0913086C10.3315 0.0913086 10.6495 0.223005 10.8839 0.457425C11.1183 0.691846 11.25 1.00979 11.25 1.34131V8.84131H18.75C19.0815 8.84131 19.3995 8.97301 19.6339 9.20743C19.8683 9.44185 20 9.75979 20 10.0913C20 10.4228 19.8683 10.7408 19.6339 10.9752C19.3995 11.2096 19.0815 11.3413 18.75 11.3413H11.25V18.8413C11.25 19.1728 11.1183 19.4908 10.8839 19.7252C10.6495 19.9596 10.3315 20.0913 10 20.0913C9.66848 20.0913 9.35054 19.9596 9.11612 19.7252C8.8817 19.4908 8.75 19.1728 8.75 18.8413V11.3413H1.25C0.918479 11.3413 0.600537 11.2096 0.366117 10.9752C0.131696 10.7408 0 10.4228 0 10.0913C0 9.75979 0.131696 9.44185 0.366117 9.20743C0.600537 8.97301 0.918479 8.84131 1.25 8.84131H8.75V1.34131C8.75 1.00979 8.8817 0.691846 9.11612 0.457425C9.35054 0.223005 9.66848 0.0913086 10 0.0913086Z" fill="black"/>
</svg>
