<svg width="393" height="448" viewBox="0 0 393 448" fill="none" xmlns="http://www.w3.org/2000/svg">
<g opacity="0.9">
<mask id="mask0_7_283" style="mask-type:alpha" maskUnits="userSpaceOnUse" x="-27" y="135" width="656" height="587">
<path d="M-24.3615 340.644L-24.9391 351.857C-25.5166 363.069 -26.6717 385.495 -16.7616 400.715C-6.85142 415.936 14.124 423.952 27.7226 436.771C41.3211 449.59 47.5429 467.212 46.3878 489.638C45.2327 512.063 36.7008 539.291 42.9225 556.913C49.1442 574.535 70.1196 582.551 92.9393 589.367C115.759 596.182 140.423 601.796 150.333 617.017C160.243 632.238 155.4 657.064 159.777 675.887C164.155 694.71 177.753 707.529 184.552 713.939L191.352 720.349" stroke="#DCDCDC" stroke-width="2"/>
<path d="M-2.51852 330.412L-3.09607 341.625C-3.67362 352.837 -4.82871 375.263 5.08144 390.483C14.9916 405.704 35.967 413.72 49.5656 426.539C63.1642 439.358 69.3859 456.98 68.2308 479.405C67.0757 501.831 58.5438 529.059 64.7655 546.681C70.9872 564.303 91.9627 572.319 114.782 579.135C137.602 585.95 162.266 591.564 172.176 606.785C182.086 622.006 177.243 646.832 181.62 665.655C185.998 684.478 199.596 697.297 206.395 703.707L213.195 710.116" stroke="#DCDCDC" stroke-width="2"/>
<path d="M19.3245 320.18L18.7469 331.393C18.1694 342.605 17.0143 365.03 26.9245 380.251C36.8346 395.472 57.81 403.488 71.4086 416.307C85.0072 429.126 91.2289 446.748 90.0738 469.173C88.9187 491.598 80.3868 518.827 86.6085 536.449C92.8303 554.071 113.806 562.087 136.625 568.902C159.445 575.718 184.109 581.332 194.019 596.553C203.929 611.773 199.086 636.6 203.463 655.423C207.841 674.246 221.439 687.065 228.238 693.475L235.038 699.884" stroke="#DCDCDC" stroke-width="2"/>
<path d="M41.1675 309.948L40.59 321.16C40.0124 332.373 38.8573 354.798 48.7675 370.019C58.6776 385.239 79.653 393.255 93.2516 406.075C106.85 418.894 113.072 436.516 111.917 458.941C110.762 481.366 102.23 508.595 108.452 526.217C114.673 543.839 135.649 551.855 158.468 558.67C181.288 565.486 205.952 571.1 215.862 586.321C225.772 601.541 220.929 626.368 225.306 645.191C229.684 664.014 243.282 676.833 250.081 683.243L256.881 689.652" stroke="#DCDCDC" stroke-width="2"/>
<path d="M63.0108 299.716L62.4332 310.928C61.8557 322.141 60.7006 344.566 70.6107 359.787C80.5209 375.007 101.496 383.023 115.095 395.842C128.693 408.662 134.915 426.284 133.76 448.709C132.605 471.134 124.073 498.362 130.295 515.985C136.517 533.607 157.492 541.623 180.312 548.438C203.131 555.253 227.795 560.868 237.705 576.089C247.615 591.309 242.772 616.136 247.149 634.959C251.527 653.782 265.125 666.601 271.925 673.01L278.724 679.42" stroke="#DCDCDC" stroke-width="2"/>
<path d="M84.8538 289.483L84.2762 300.696C83.6987 311.909 82.5436 334.334 92.4538 349.555C102.364 364.775 123.339 372.791 136.938 385.61C150.536 398.429 156.758 416.052 155.603 438.477C154.448 460.902 145.916 488.13 152.138 505.752C158.36 523.375 179.335 531.391 202.155 538.206C224.974 545.021 249.638 550.636 259.548 565.856C269.458 581.077 264.615 605.904 268.992 624.727C273.37 643.55 286.969 656.369 293.768 662.778L300.567 669.188" stroke="#DCDCDC" stroke-width="2"/>
<path d="M106.697 279.251L106.119 290.464C105.542 301.677 104.387 324.102 114.297 339.322C124.207 354.543 145.182 362.559 158.781 375.378C172.379 388.197 178.601 405.819 177.446 428.245C176.291 450.67 167.759 477.898 173.981 495.52C180.203 513.142 201.178 521.159 223.998 527.974C246.817 534.789 271.481 540.404 281.391 555.624C291.301 570.845 286.458 595.672 290.835 614.495C295.213 633.317 308.811 646.137 315.611 652.546L322.41 658.956" stroke="#DCDCDC" stroke-width="2"/>
<path d="M128.54 269.019L127.962 280.232C127.385 291.444 126.23 313.87 136.14 329.09C146.05 344.311 167.025 352.327 180.624 365.146C194.223 377.965 200.444 395.587 199.289 418.012C198.134 440.438 189.602 467.666 195.824 485.288C202.046 502.91 223.021 510.926 245.841 517.742C268.66 524.557 293.324 530.171 303.234 545.392C313.144 560.613 308.301 585.439 312.678 604.262C317.056 623.085 330.655 635.904 337.454 642.314L344.253 648.723" stroke="#DCDCDC" stroke-width="2"/>
<path d="M150.383 258.787L149.805 270C149.228 281.212 148.073 303.637 157.983 318.858C167.893 334.079 188.868 342.095 202.467 354.914C216.066 367.733 222.287 385.355 221.132 407.78C219.977 430.206 211.445 457.434 217.667 475.056C223.889 492.678 244.864 500.694 267.684 507.509C290.503 514.325 315.167 519.939 325.077 535.16C334.987 550.381 330.144 575.207 334.521 594.03C338.899 612.853 352.498 625.672 359.297 632.082L366.096 638.491" stroke="#DCDCDC" stroke-width="2"/>
<path d="M172.226 248.555L171.649 259.767C171.071 270.98 169.916 293.405 179.826 308.626C189.736 323.847 210.712 331.863 224.31 344.682C237.909 357.501 244.131 375.123 242.975 397.548C241.82 419.973 233.288 447.202 239.51 464.824C245.732 482.446 266.707 490.462 289.527 497.277C312.347 504.093 337.01 509.707 346.921 524.928C356.831 540.148 351.987 564.975 356.365 583.798C360.742 602.621 374.341 615.44 381.14 621.85L387.939 628.259" stroke="#DCDCDC" stroke-width="2"/>
<path d="M194.069 238.323L193.492 249.535C192.914 260.748 191.759 283.173 201.669 298.394C211.579 313.614 232.555 321.63 246.153 334.45C259.752 347.269 265.974 364.891 264.818 387.316C263.663 409.741 255.131 436.97 261.353 454.592C267.575 472.214 288.55 480.23 311.37 487.045C334.19 493.86 358.853 499.475 368.764 514.696C378.674 529.916 373.83 554.743 378.208 573.566C382.585 592.389 396.184 605.208 402.983 611.617L409.782 618.027" stroke="#DCDCDC" stroke-width="2"/>
<path d="M215.912 228.091L215.335 239.303C214.757 250.516 213.602 272.941 223.512 288.162C233.422 303.382 254.398 311.398 267.996 324.217C281.595 337.036 287.817 354.659 286.661 377.084C285.506 399.509 276.974 426.737 283.196 444.36C289.418 461.982 310.393 469.998 333.213 476.813C356.033 483.628 380.696 489.243 390.607 504.463C400.517 519.684 395.673 544.511 400.051 563.334C404.428 582.157 418.027 594.976 424.826 601.385L431.625 607.795" stroke="#DCDCDC" stroke-width="2"/>
<path d="M237.755 217.858L237.178 229.071C236.6 240.284 235.445 262.709 245.355 277.929C255.265 293.15 276.241 301.166 289.839 313.985C303.438 326.804 309.66 344.426 308.504 366.852C307.349 389.277 298.817 416.505 305.039 434.127C311.261 451.75 332.236 459.766 355.056 466.581C377.876 473.396 402.539 479.011 412.45 494.231C422.36 509.452 417.516 534.279 421.894 553.102C426.271 571.925 439.87 584.744 446.669 591.153L453.468 597.563" stroke="#DCDCDC" stroke-width="2"/>
<path d="M259.598 207.626L259.021 218.839C258.443 230.051 257.288 252.477 267.198 267.697C277.108 282.918 298.084 290.934 311.682 303.753C325.281 316.572 331.503 334.194 330.347 356.62C329.192 379.045 320.66 406.273 326.882 423.895C333.104 441.517 354.079 449.533 376.899 456.349C399.719 463.164 424.382 468.778 434.293 483.999C444.203 499.22 439.359 524.046 443.737 542.869C448.114 561.692 461.713 574.511 468.512 580.921L475.311 587.331" stroke="#DCDCDC" stroke-width="2"/>
<path d="M281.441 197.394L280.864 208.607C280.286 219.819 279.131 242.244 289.041 257.465C298.952 272.686 319.927 280.702 333.526 293.521C347.124 306.34 353.346 323.962 352.191 346.387C351.036 368.813 342.504 396.041 348.725 413.663C354.947 431.285 375.923 439.301 398.742 446.117C421.562 452.932 446.226 458.546 456.136 473.767C466.046 488.988 461.202 513.814 465.58 532.637C469.958 551.46 483.556 564.279 490.355 570.689L497.155 577.098" stroke="#DCDCDC" stroke-width="2"/>
<path d="M303.284 187.162L302.707 198.375C302.129 209.587 300.974 232.012 310.884 247.233C320.795 262.454 341.77 270.47 355.369 283.289C368.967 296.108 375.189 313.73 374.034 336.155C372.879 358.58 364.347 385.809 370.568 403.431C376.79 421.053 397.766 429.069 420.585 435.884C443.405 442.7 468.069 448.314 477.979 463.535C487.889 478.755 483.045 503.582 487.423 522.405C491.801 541.228 505.399 554.047 512.198 560.457L518.998 566.866" stroke="#DCDCDC" stroke-width="2"/>
<path d="M325.127 176.93L324.55 188.142C323.972 199.355 322.817 221.78 332.727 237.001C342.638 252.221 363.613 260.237 377.212 273.057C390.81 285.876 397.032 303.498 395.877 325.923C394.722 348.348 386.19 375.577 392.412 393.199C398.633 410.821 419.609 418.837 442.428 425.652C465.248 432.467 489.912 438.082 499.822 453.303C509.732 468.523 504.889 493.35 509.266 512.173C513.644 530.996 527.242 543.815 534.041 550.224L540.841 556.634" stroke="#DCDCDC" stroke-width="2"/>
<path d="M346.97 166.698L346.393 177.91C345.815 189.123 344.66 211.548 354.57 226.769C364.481 241.989 385.456 250.005 399.055 262.824C412.653 275.644 418.875 293.266 417.72 315.691C416.565 338.116 408.033 365.344 414.255 382.967C420.476 400.589 441.452 408.605 464.271 415.42C487.091 422.235 511.755 427.85 521.665 443.07C531.575 458.291 526.732 483.118 531.109 501.941C535.487 520.764 549.085 533.583 555.884 539.992L562.684 546.402" stroke="#DCDCDC" stroke-width="2"/>
<path d="M368.814 156.465L368.236 167.678C367.658 178.891 366.503 201.316 376.413 216.537C386.324 231.757 407.299 239.773 420.898 252.592C434.496 265.411 440.718 283.034 439.563 305.459C438.408 327.884 429.876 355.112 436.098 372.734C442.319 390.357 463.295 398.373 486.114 405.188C508.934 412.003 533.598 417.618 543.508 432.838C553.418 448.059 548.575 472.886 552.952 491.709C557.33 510.532 570.928 523.351 577.727 529.76L584.527 536.17" stroke="#DCDCDC" stroke-width="2"/>
<path d="M390.657 146.233L390.079 157.446C389.501 168.659 388.346 191.084 398.256 206.304C408.167 221.525 429.142 229.541 442.741 242.36C456.339 255.179 462.561 272.801 461.406 295.227C460.251 317.652 451.719 344.88 457.941 362.502C464.162 380.125 485.138 388.141 507.957 394.956C530.777 401.771 555.441 407.386 565.351 422.606C575.261 437.827 570.418 462.654 574.795 481.477C579.173 500.3 592.771 513.119 599.571 519.528L606.37 525.938" stroke="#DCDCDC" stroke-width="2"/>
<path d="M412.5 136.001L411.922 147.214C411.344 158.426 410.189 180.852 420.1 196.072C430.01 211.293 450.985 219.309 464.584 232.128C478.182 244.947 484.404 262.569 483.249 284.995C482.094 307.42 473.562 334.648 479.784 352.27C486.005 369.892 506.981 377.908 529.8 384.724C552.62 391.539 577.284 397.154 587.194 412.374C597.104 427.595 592.261 452.422 596.638 471.244C601.016 490.067 614.614 502.886 621.414 509.296L628.213 515.706" stroke="#DCDCDC" stroke-width="2"/>
</mask>
<g mask="url(#mask0_7_283)">
<path d="M90.0361 552.899C100.818 590.037 165.231 619.712 196.089 629.908C282.801 657.752 227.289 580.139 328.803 607.735C382.775 622.407 506.163 552.414 557.517 542.076C608.87 531.738 586.731 479.903 540.675 466.444C494.618 452.985 454.445 426.798 465.641 376.738C476.838 326.678 449.745 291.04 402.445 258.51C355.145 225.98 352.841 309.789 335.002 339.771C317.162 369.753 282.094 366.51 221.86 333.43C161.626 300.351 132.531 373.792 86.2074 414.007C39.8843 454.222 76.5583 506.475 90.0361 552.899Z" fill="black" stroke="black"/>
</g>
<path d="M90.0361 552.899C100.818 590.037 165.231 619.712 196.089 629.908C282.801 657.752 227.289 580.139 328.803 607.735C382.775 622.407 506.163 552.414 557.517 542.076C608.87 531.738 586.731 479.903 540.675 466.444C494.618 452.985 454.445 426.798 465.641 376.738C476.838 326.678 449.745 291.04 402.445 258.51C355.145 225.98 352.841 309.789 335.002 339.771C317.162 369.753 282.094 366.51 221.86 333.43C161.626 300.351 132.531 373.792 86.2074 414.007C39.8843 454.222 76.5583 506.475 90.0361 552.899Z" stroke="black" stroke-width="2"/>
</g>
</svg>
