<svg width="40" height="40" viewBox="0 0 40 40" fill="none" xmlns="http://www.w3.org/2000/svg">
<mask id="path-1-outside-1_36_1013" maskUnits="userSpaceOnUse" x="0" y="2" width="39" height="37" fill="black">
<rect fill="white" y="2" width="39" height="37"/>
<path d="M36.0714 13.8751C37.1437 17.0342 37.2906 20.4339 36.495 23.6737C35.6994 26.9135 33.9943 29.8583 31.5806 32.1613C29.167 34.4642 26.1454 36.0293 22.8718 36.6721C19.5983 37.3149 16.2092 37.0086 13.104 35.7893C9.9987 34.57 7.30666 32.4885 5.34503 29.7901C3.3834 27.0917 2.23394 23.8889 2.03207 20.5589C1.8302 17.229 2.58435 13.9107 4.20564 10.9951C5.82694 8.07955 8.24783 5.68812 11.1831 4.10265L12.8464 7.18212C10.4983 8.4505 8.56155 10.3636 7.26451 12.6961C5.96748 15.0286 5.36416 17.6832 5.52565 20.3472C5.68715 23.0111 6.60672 25.5734 8.17602 27.7321C9.74533 29.8908 11.899 31.556 14.3832 32.5314C16.8674 33.5069 19.5786 33.7519 22.1975 33.2377C24.8163 32.7235 27.2336 31.4714 29.1645 29.629C31.0954 27.7867 32.4595 25.4308 33.096 22.8389C33.7325 20.2471 33.6149 17.5273 32.7571 15.0001L36.0714 13.8751Z"/>
</mask>
<path d="M36.0714 13.8751C37.1437 17.0342 37.2906 20.4339 36.495 23.6737C35.6994 26.9135 33.9943 29.8583 31.5806 32.1613C29.167 34.4642 26.1454 36.0293 22.8718 36.6721C19.5983 37.3149 16.2092 37.0086 13.104 35.7893C9.9987 34.57 7.30666 32.4885 5.34503 29.7901C3.3834 27.0917 2.23394 23.8889 2.03207 20.5589C1.8302 17.229 2.58435 13.9107 4.20564 10.9951C5.82694 8.07955 8.24783 5.68812 11.1831 4.10265L12.8464 7.18212C10.4983 8.4505 8.56155 10.3636 7.26451 12.6961C5.96748 15.0286 5.36416 17.6832 5.52565 20.3472C5.68715 23.0111 6.60672 25.5734 8.17602 27.7321C9.74533 29.8908 11.899 31.556 14.3832 32.5314C16.8674 33.5069 19.5786 33.7519 22.1975 33.2377C24.8163 32.7235 27.2336 31.4714 29.1645 29.629C31.0954 27.7867 32.4595 25.4308 33.096 22.8389C33.7325 20.2471 33.6149 17.5273 32.7571 15.0001L36.0714 13.8751Z" fill="black"/>
<path d="M36.0714 13.8751C37.1437 17.0342 37.2906 20.4339 36.495 23.6737C35.6994 26.9135 33.9943 29.8583 31.5806 32.1613C29.167 34.4642 26.1454 36.0293 22.8718 36.6721C19.5983 37.3149 16.2092 37.0086 13.104 35.7893C9.9987 34.57 7.30666 32.4885 5.34503 29.7901C3.3834 27.0917 2.23394 23.8889 2.03207 20.5589C1.8302 17.229 2.58435 13.9107 4.20564 10.9951C5.82694 8.07955 8.24783 5.68812 11.1831 4.10265L12.8464 7.18212C10.4983 8.4505 8.56155 10.3636 7.26451 12.6961C5.96748 15.0286 5.36416 17.6832 5.52565 20.3472C5.68715 23.0111 6.60672 25.5734 8.17602 27.7321C9.74533 29.8908 11.899 31.556 14.3832 32.5314C16.8674 33.5069 19.5786 33.7519 22.1975 33.2377C24.8163 32.7235 27.2336 31.4714 29.1645 29.629C31.0954 27.7867 32.4595 25.4308 33.096 22.8389C33.7325 20.2471 33.6149 17.5273 32.7571 15.0001L36.0714 13.8751Z" stroke="black" stroke-width="4" stroke-linejoin="round" mask="url(#path-1-outside-1_36_1013)"/>
<mask id="path-2-outside-2_36_1013" maskUnits="userSpaceOnUse" x="15" y="0" width="20" height="13" fill="black">
<rect fill="white" x="15" width="20" height="13"/>
<path d="M17.8245 2.08039C20.5461 1.81862 23.2911 2.19818 25.8395 3.18863C28.3879 4.17908 30.6688 5.75287 32.4993 7.78382L29.8994 10.1271C28.435 8.5023 26.6103 7.24327 24.5716 6.45091C22.5329 5.65854 20.3369 5.3549 18.1596 5.56431L17.8245 2.08039Z"/>
</mask>
<path d="M17.8245 2.08039C20.5461 1.81862 23.2911 2.19818 25.8395 3.18863C28.3879 4.17908 30.6688 5.75287 32.4993 7.78382L29.8994 10.1271C28.435 8.5023 26.6103 7.24327 24.5716 6.45091C22.5329 5.65854 20.3369 5.3549 18.1596 5.56431L17.8245 2.08039Z" stroke="black" stroke-width="4" stroke-linejoin="round" mask="url(#path-2-outside-2_36_1013)"/>
</svg>
