<svg width="393" height="852" viewBox="0 0 393 852" fill="none" xmlns="http://www.w3.org/2000/svg">
<g clip-path="url(#clip0_36_1721)">
<rect width="393" height="852" fill="white"/>
<g opacity="0.1">
<mask id="mask0_36_1721" style="mask-type:alpha" maskUnits="userSpaceOnUse" x="-394" y="-376" width="1266" height="1528">
<path d="M790.865 -200.867L763.005 -213.364C735.146 -225.861 679.426 -250.855 631.085 -240.706C582.744 -230.557 541.782 -185.264 495.9 -163.4C450.019 -141.536 399.218 -143.102 343.499 -168.096C287.78 -193.09 227.141 -241.513 176.341 -243.078C125.54 -244.644 84.5778 -199.351 44.845 -148.201C5.11213 -97.0512 -33.391 -40.0441 -81.732 -29.8948C-130.073 -19.7456 -188.252 -56.4542 -240.282 -63.8767C-292.312 -71.2992 -338.194 -49.4355 -361.134 -38.5036L-384.075 -27.5717" stroke="#DCDCDC" stroke-width="2"/>
<path d="M795.315 -135.419L767.455 -147.916C739.595 -160.413 683.876 -185.407 635.535 -175.258C587.194 -165.109 546.231 -119.816 500.35 -97.9522C454.468 -76.0885 403.668 -77.6537 347.948 -102.648C292.229 -127.642 231.591 -176.065 180.79 -177.63C129.99 -179.196 89.0273 -133.903 49.2945 -82.7531C9.56163 -31.6032 -28.9415 25.404 -77.2825 35.5532C-125.623 45.7025 -183.802 8.9938 -235.832 1.57133C-287.863 -5.85114 -333.744 16.0126 -356.685 26.9444L-379.626 37.8763" stroke="#DCDCDC" stroke-width="2"/>
<path d="M799.764 -69.9707L771.904 -82.4678C744.044 -94.9649 688.325 -119.959 639.984 -109.81C591.643 -99.6606 550.681 -54.368 504.799 -32.5042C458.918 -10.6405 408.117 -12.2057 352.398 -37.1999C296.678 -62.1941 236.04 -110.617 185.24 -112.182C134.439 -113.748 93.4766 -68.4551 53.7437 -17.3051C14.0109 33.8448 -24.4922 90.8519 -72.8332 101.001C-121.174 111.15 -179.353 74.4417 -231.383 67.0193C-283.413 59.5968 -329.295 81.4605 -352.236 92.3924L-375.176 103.324" stroke="#DCDCDC" stroke-width="2"/>
<path d="M804.213 -4.52275L776.354 -17.0198C748.494 -29.5169 692.775 -54.5111 644.434 -44.3619C596.093 -34.2126 555.13 11.08 509.249 32.9437C463.367 54.8075 412.567 53.2422 356.847 28.248C301.128 3.25385 240.489 -45.1693 189.689 -46.7345C138.889 -48.2998 97.926 -3.00709 58.1932 48.1428C18.4603 99.2927 -20.0428 156.3 -68.3838 166.449C-116.725 176.598 -174.904 139.89 -226.934 132.467C-278.964 125.045 -324.845 146.908 -347.786 157.84L-370.727 168.772" stroke="#DCDCDC" stroke-width="2"/>
<path d="M808.663 60.9255L780.803 48.4284C752.943 35.9313 697.224 10.9372 648.883 21.0864C600.542 31.2356 559.579 76.5283 513.698 98.392C467.816 120.256 417.016 118.691 361.297 93.6963C305.577 68.7022 244.939 20.279 194.138 18.7138C143.338 17.1486 102.375 62.4412 62.6426 113.591C22.9098 164.741 -15.5933 221.748 -63.9343 231.897C-112.275 242.047 -170.454 205.338 -222.484 197.916C-274.515 190.493 -320.396 212.357 -343.337 223.289L-366.278 234.221" stroke="#DCDCDC" stroke-width="2"/>
<path d="M813.112 126.374L785.252 113.876C757.393 101.379 701.673 76.3852 653.332 86.5344C604.991 96.6836 564.029 141.976 518.147 163.84C472.266 185.704 421.465 184.139 365.746 159.144C310.026 134.15 249.388 85.727 198.588 84.1618C147.787 82.5966 106.825 127.889 67.0918 179.039C27.359 230.189 -11.1441 287.196 -59.4851 297.345C-107.826 307.495 -166.005 270.786 -218.035 263.364C-270.065 255.941 -315.947 277.805 -338.888 288.737L-361.828 299.669" stroke="#DCDCDC" stroke-width="2"/>
<path d="M817.561 191.821L789.702 179.324C761.842 166.827 706.123 141.833 657.782 151.982C609.441 162.132 568.478 207.424 522.597 229.288C476.715 251.152 425.915 249.586 370.195 224.592C314.476 199.598 253.838 151.175 203.037 149.61C152.237 148.044 111.274 193.337 71.5413 244.487C31.8085 295.637 -6.69465 352.644 -55.0356 362.793C-103.377 372.943 -161.555 336.234 -213.586 328.811C-265.616 321.389 -311.497 343.253 -334.438 354.185L-357.379 365.116" stroke="#DCDCDC" stroke-width="2"/>
<path d="M822.011 257.269L794.151 244.772C766.292 232.275 710.572 207.281 662.231 217.43C613.89 227.58 572.928 272.872 527.046 294.736C481.165 316.6 430.364 315.034 374.645 290.04C318.925 265.046 258.287 216.623 207.487 215.058C156.686 213.492 115.724 258.785 75.9908 309.935C36.2579 361.085 -2.24518 418.092 -50.5862 428.241C-98.9271 438.391 -157.106 401.682 -209.136 394.259C-261.166 386.837 -307.048 408.701 -329.989 419.633L-352.929 430.564" stroke="#DCDCDC" stroke-width="2"/>
<path d="M826.46 322.718L798.601 310.22C770.741 297.723 715.022 272.729 666.681 282.878C618.34 293.028 577.377 338.32 531.496 360.184C485.614 382.048 434.814 380.483 379.094 355.488C323.375 330.494 262.737 282.071 211.936 280.506C161.136 278.941 120.173 324.233 80.4402 375.383C40.7074 426.533 2.20427 483.54 -46.1367 493.689C-94.4777 503.839 -152.657 467.13 -204.687 459.708C-256.717 452.285 -302.598 474.149 -325.539 485.081L-348.48 496.013" stroke="#DCDCDC" stroke-width="2"/>
<path d="M830.91 388.166L803.05 375.669C775.19 363.172 719.471 338.177 671.13 348.327C622.789 358.476 581.826 403.769 535.945 425.632C490.063 447.496 439.263 445.931 383.543 420.937C327.824 395.942 267.186 347.519 216.385 345.954C165.585 344.389 124.622 389.681 84.8894 440.831C45.1566 491.981 6.65349 548.988 -41.6875 559.138C-90.0285 569.287 -148.207 532.578 -200.237 525.156C-252.268 517.733 -298.149 539.597 -321.09 550.529L-344.031 561.461" stroke="#DCDCDC" stroke-width="2"/>
<path d="M835.359 453.614L807.499 441.117C779.64 428.62 723.92 403.625 675.579 413.775C627.238 423.924 586.276 469.217 540.394 491.08C494.513 512.944 443.712 511.379 387.993 486.385C332.274 461.39 271.635 412.967 220.835 411.402C170.034 409.837 129.072 455.129 89.339 506.279C49.6061 557.429 11.103 614.436 -37.238 624.586C-85.579 634.735 -143.758 598.026 -195.788 590.604C-247.818 583.181 -293.7 605.045 -316.64 615.977L-339.581 626.909" stroke="#DCDCDC" stroke-width="2"/>
<path d="M839.809 519.062L811.949 506.565C784.089 494.068 728.37 469.073 680.029 479.223C631.688 489.372 590.725 534.665 544.844 556.528C498.962 578.392 448.162 576.827 392.442 551.833C336.723 526.838 276.085 478.415 225.284 476.85C174.484 475.285 133.521 520.577 93.7884 571.727C54.0556 622.877 15.5525 679.884 -32.7885 690.034C-81.1295 700.183 -139.308 663.474 -191.339 656.052C-243.369 648.629 -289.25 670.493 -312.191 681.425L-335.132 692.357" stroke="#DCDCDC" stroke-width="2"/>
<path d="M844.258 584.51L816.398 572.013C788.539 559.516 732.819 534.521 684.478 544.671C636.137 554.82 595.175 600.113 549.293 621.976C503.412 643.84 452.611 642.275 396.892 617.281C341.172 592.286 280.534 543.863 229.734 542.298C178.933 540.733 137.971 586.025 98.2378 637.175C58.505 688.325 20.0019 745.332 -28.3391 755.482C-76.6801 765.631 -134.859 728.922 -186.889 721.5C-238.919 714.077 -284.801 735.941 -307.742 746.873L-330.682 757.805" stroke="#DCDCDC" stroke-width="2"/>
<path d="M848.707 649.958L820.848 637.461C792.988 624.964 737.268 599.97 688.927 610.119C640.587 620.268 599.624 665.561 553.742 687.424C507.861 709.288 457.06 707.723 401.341 682.729C345.622 657.735 284.983 609.311 234.183 607.746C183.383 606.181 142.42 651.474 102.687 702.624C62.9543 753.773 24.4511 810.781 -23.8898 820.93C-72.2308 831.079 -130.41 794.37 -182.44 786.948C-234.47 779.525 -280.352 801.389 -303.292 812.321L-326.233 823.253" stroke="#DCDCDC" stroke-width="2"/>
<path d="M853.157 715.406L825.297 702.909C797.438 690.412 741.718 665.418 693.377 675.567C645.036 685.716 604.074 731.009 558.192 752.872C512.311 774.736 461.51 773.171 405.791 748.177C350.071 723.183 289.433 674.759 238.633 673.194C187.832 671.629 146.87 716.922 107.137 768.072C67.4039 819.222 28.9008 876.229 -19.4402 886.378C-67.7812 896.527 -125.96 859.819 -177.99 852.396C-230.02 844.974 -275.902 866.837 -298.843 877.769L-321.783 888.701" stroke="#DCDCDC" stroke-width="2"/>
<path d="M857.606 780.854L829.746 768.357C801.887 755.86 746.167 730.866 697.826 741.015C649.485 751.164 608.523 796.457 562.641 818.32C516.76 840.184 465.959 838.619 410.24 813.625C354.521 788.631 293.882 740.207 243.082 738.642C192.281 737.077 151.319 782.37 111.586 833.52C71.8531 884.67 33.35 941.677 -14.991 951.826C-63.3319 961.975 -121.511 925.267 -173.541 917.844C-225.571 910.422 -271.453 932.285 -294.393 943.217L-317.334 954.149" stroke="#DCDCDC" stroke-width="2"/>
<path d="M862.055 846.302L834.196 833.805C806.336 821.308 750.617 796.314 702.276 806.463C653.935 816.612 612.972 861.905 567.091 883.768C521.209 905.632 470.409 904.067 414.689 879.073C358.97 854.079 298.332 805.655 247.531 804.09C196.731 802.525 155.768 847.818 116.035 898.968C76.3024 950.118 37.7992 1007.12 -10.5417 1017.27C-58.8827 1027.42 -117.062 990.715 -169.092 983.292C-221.122 975.87 -267.003 997.733 -289.944 1008.67L-312.885 1019.6" stroke="#DCDCDC" stroke-width="2"/>
<path d="M866.505 911.75L838.645 899.253C810.785 886.756 755.066 861.762 706.725 871.911C658.384 882.06 617.421 927.353 571.54 949.216C525.658 971.08 474.858 969.515 419.138 944.521C363.419 919.527 302.781 871.103 251.98 869.538C201.18 867.973 160.217 913.266 120.484 964.416C80.7516 1015.57 42.2485 1072.57 -6.09246 1082.72C-54.4334 1092.87 -112.612 1056.16 -164.642 1048.74C-216.673 1041.32 -262.554 1063.18 -285.495 1074.11L-308.436 1085.04" stroke="#DCDCDC" stroke-width="2"/>
<path d="M870.954 977.198L843.094 964.701C815.235 952.204 759.515 927.209 711.174 937.359C662.833 947.508 621.871 992.801 575.989 1014.66C530.108 1036.53 479.307 1034.96 423.588 1009.97C367.869 984.974 307.23 936.551 256.43 934.986C205.629 933.421 164.667 978.713 124.934 1029.86C85.201 1081.01 46.6979 1138.02 -1.64306 1148.17C-49.984 1158.32 -108.163 1121.61 -160.193 1114.19C-212.223 1106.77 -258.105 1128.63 -281.046 1139.56L-303.986 1150.49" stroke="#DCDCDC" stroke-width="2"/>
</mask>
<g mask="url(#mask0_36_1721)">
<path d="M131.263 -250.575C26.4934 -259.781 -112.123 -125.671 -168.335 -57.4658C-324.252 134.98 -72.8532 70.6064 -242.706 300.826C-333.011 423.228 -276.962 804.933 -301.281 945.305C-325.601 1085.68 -172.397 1080.55 -92.9557 977.023C-13.5144 873.496 92.4077 797.409 208.31 875.055C324.213 952.7 441.228 919.076 570.245 831.162C699.261 743.249 489.042 654.942 430.58 580.21C372.118 505.479 414.847 419.762 557.983 299.595C701.12 179.428 543.549 33.3982 487.169 -123.618C430.79 -280.633 262.224 -239.067 131.263 -250.575Z" fill="#A9A9A9" stroke="black"/>
</g>
<path d="M131.263 -250.575C26.4934 -259.781 -112.123 -125.671 -168.335 -57.4658C-324.252 134.98 -72.8532 70.6064 -242.706 300.826C-333.011 423.228 -276.962 804.933 -301.281 945.305C-325.601 1085.68 -172.397 1080.55 -92.9557 977.023C-13.5144 873.496 92.4077 797.409 208.31 875.055C324.213 952.7 441.228 919.076 570.245 831.162C699.261 743.249 489.042 654.942 430.58 580.21C372.118 505.479 414.847 419.762 557.983 299.595C701.12 179.428 543.549 33.3982 487.169 -123.618C430.79 -280.633 262.224 -239.067 131.263 -250.575Z" stroke="#A9A9A9" stroke-width="2"/>
</g>
<rect x="29" y="733" width="336" height="70" rx="35" fill="#FBFBFB"/>
<path d="M78.7676 751.75C78.2988 751.281 77.663 751.018 77.0001 751.018C76.3372 751.018 75.7014 751.281 75.2326 751.75L58.6151 768.365C58.4989 768.481 58.4067 768.619 58.3438 768.771C58.2809 768.923 58.2485 769.086 58.2485 769.25C58.2485 769.414 58.2809 769.577 58.3438 769.729C58.4067 769.881 58.4989 770.019 58.6151 770.135C58.8498 770.37 59.1682 770.502 59.5001 770.502C59.6645 770.502 59.8272 770.469 59.9791 770.406C60.1309 770.343 60.2689 770.251 60.3851 770.135L62.0001 768.518V781.75C62.0001 782.745 62.3952 783.698 63.0985 784.402C63.8017 785.105 64.7556 785.5 65.7501 785.5H88.2501C89.2447 785.5 90.1985 785.105 90.9018 784.402C91.605 783.698 92.0001 782.745 92.0001 781.75V768.518L93.6151 770.135C93.8498 770.37 94.1682 770.502 94.5001 770.502C94.8321 770.502 95.1504 770.37 95.3851 770.135C95.6198 769.9 95.7517 769.582 95.7517 769.25C95.7517 768.918 95.6198 768.6 95.3851 768.365L89.5001 762.483V754.25C89.5001 753.919 89.3684 753.601 89.134 753.366C88.8996 753.132 88.5816 753 88.2501 753H85.7501C85.4186 753 85.1006 753.132 84.8662 753.366C84.6318 753.601 84.5001 753.919 84.5001 754.25V757.483L78.7676 751.75ZM89.5001 766.018V781.75C89.5001 782.082 89.3684 782.399 89.134 782.634C88.8996 782.868 88.5816 783 88.2501 783H65.7501C65.4186 783 65.1007 782.868 64.8662 782.634C64.6318 782.399 64.5001 782.082 64.5001 781.75V766.018L77.0001 753.518L89.5001 766.018Z" fill="black"/>
<path d="M154.5 783C154.5 783 152 783 152 780.5C152 778 154.5 770.5 164.5 770.5C174.5 770.5 177 778 177 780.5C177 783 174.5 783 174.5 783H154.5ZM164.5 768C166.489 768 168.397 767.21 169.803 765.803C171.21 764.397 172 762.489 172 760.5C172 758.511 171.21 756.603 169.803 755.197C168.397 753.79 166.489 753 164.5 753C162.511 753 160.603 753.79 159.197 755.197C157.79 756.603 157 758.511 157 760.5C157 762.489 157.79 764.397 159.197 765.803C160.603 767.21 162.511 768 164.5 768ZM150.04 783C149.67 782.219 149.485 781.364 149.5 780.5C149.5 777.112 151.2 773.625 154.34 771.2C152.773 770.716 151.14 770.48 149.5 770.5C139.5 770.5 137 778 137 780.5C137 783 139.5 783 139.5 783H150.04ZM148.25 768C149.908 768 151.497 767.342 152.669 766.169C153.842 764.997 154.5 763.408 154.5 761.75C154.5 760.092 153.842 758.503 152.669 757.331C151.497 756.158 149.908 755.5 148.25 755.5C146.592 755.5 145.003 756.158 143.831 757.331C142.658 758.503 142 760.092 142 761.75C142 763.408 142.658 764.997 143.831 766.169C145.003 767.342 146.592 768 148.25 768Z" fill="black"/>
<path d="M228.562 753.281H226.375C225.215 753.281 224.102 753.742 223.281 754.563C222.461 755.383 222 756.496 222 757.656V780.625C222 781.785 222.461 782.898 223.281 783.719C224.102 784.539 225.215 785 226.375 785H248.25C249.41 785 250.523 784.539 251.344 783.719C252.164 782.898 252.625 781.785 252.625 780.625V757.656C252.625 756.496 252.164 755.383 251.344 754.563C250.523 753.742 249.41 753.281 248.25 753.281H246.062V755.469H248.25C248.83 755.469 249.387 755.699 249.797 756.109C250.207 756.52 250.438 757.076 250.438 757.656V780.625C250.438 781.205 250.207 781.762 249.797 782.172C249.387 782.582 248.83 782.812 248.25 782.812H226.375C225.795 782.812 225.238 782.582 224.828 782.172C224.418 781.762 224.188 781.205 224.188 780.625V757.656C224.188 757.076 224.418 756.52 224.828 756.109C225.238 755.699 225.795 755.469 226.375 755.469H228.562V753.281Z" fill="black"/>
<path d="M240.594 752.188C240.884 752.188 241.162 752.303 241.367 752.508C241.572 752.713 241.688 752.991 241.688 753.281V755.469C241.688 755.759 241.572 756.037 241.367 756.242C241.162 756.447 240.884 756.562 240.594 756.562H234.031C233.741 756.562 233.463 756.447 233.258 756.242C233.053 756.037 232.938 755.759 232.938 755.469V753.281C232.938 752.991 233.053 752.713 233.258 752.508C233.463 752.303 233.741 752.188 234.031 752.188H240.594ZM234.031 750C233.161 750 232.326 750.346 231.711 750.961C231.096 751.576 230.75 752.411 230.75 753.281V755.469C230.75 756.339 231.096 757.174 231.711 757.789C232.326 758.404 233.161 758.75 234.031 758.75H240.594C241.464 758.75 242.299 758.404 242.914 757.789C243.529 757.174 243.875 756.339 243.875 755.469V753.281C243.875 752.411 243.529 751.576 242.914 750.961C242.299 750.346 241.464 750 240.594 750H234.031Z" fill="black"/>
<mask id="path-27-outside-1_36_1721" maskUnits="userSpaceOnUse" x="297" y="750" width="39" height="37" fill="black">
<rect fill="white" x="297" y="750" width="39" height="37"/>
<path d="M333.071 761.875C334.144 765.034 334.291 768.434 333.495 771.674C332.699 774.913 330.994 777.858 328.581 780.161C326.167 782.464 323.145 784.029 319.872 784.672C316.598 785.315 313.209 785.009 310.104 783.789C306.999 782.57 304.307 780.489 302.345 777.79C300.383 775.092 299.234 771.889 299.032 768.559C298.83 765.229 299.584 761.911 301.206 758.995C302.827 756.08 305.248 753.688 308.183 752.103L309.846 755.182C307.498 756.451 305.562 758.364 304.265 760.696C302.967 763.029 302.364 765.683 302.526 768.347C302.687 771.011 303.607 773.573 305.176 775.732C306.745 777.891 308.899 779.556 311.383 780.531C313.867 781.507 316.579 781.752 319.197 781.238C321.816 780.723 324.234 779.471 326.165 777.629C328.095 775.787 329.46 773.431 330.096 770.839C330.733 768.247 330.615 765.527 329.757 763L333.071 761.875Z"/>
</mask>
<path d="M333.071 761.875C334.144 765.034 334.291 768.434 333.495 771.674C332.699 774.913 330.994 777.858 328.581 780.161C326.167 782.464 323.145 784.029 319.872 784.672C316.598 785.315 313.209 785.009 310.104 783.789C306.999 782.57 304.307 780.489 302.345 777.79C300.383 775.092 299.234 771.889 299.032 768.559C298.83 765.229 299.584 761.911 301.206 758.995C302.827 756.08 305.248 753.688 308.183 752.103L309.846 755.182C307.498 756.451 305.562 758.364 304.265 760.696C302.967 763.029 302.364 765.683 302.526 768.347C302.687 771.011 303.607 773.573 305.176 775.732C306.745 777.891 308.899 779.556 311.383 780.531C313.867 781.507 316.579 781.752 319.197 781.238C321.816 780.723 324.234 779.471 326.165 777.629C328.095 775.787 329.46 773.431 330.096 770.839C330.733 768.247 330.615 765.527 329.757 763L333.071 761.875Z" stroke="black" stroke-width="4" stroke-linejoin="round" mask="url(#path-27-outside-1_36_1721)"/>
<mask id="path-28-outside-2_36_1721" maskUnits="userSpaceOnUse" x="312" y="748" width="20" height="13" fill="black">
<rect fill="white" x="312" y="748" width="20" height="13"/>
<path d="M314.825 750.08C317.546 749.819 320.291 750.198 322.84 751.189C325.388 752.179 327.669 753.753 329.499 755.784L326.899 758.127C325.435 756.502 323.61 755.243 321.572 754.451C319.533 753.659 317.337 753.355 315.16 753.564L314.825 750.08Z"/>
</mask>
<path d="M314.825 750.08C317.546 749.819 320.291 750.198 322.84 751.189C325.388 752.179 327.669 753.753 329.499 755.784L326.899 758.127C325.435 756.502 323.61 755.243 321.572 754.451C319.533 753.659 317.337 753.355 315.16 753.564L314.825 750.08Z" stroke="black" stroke-width="4" stroke-linejoin="round" mask="url(#path-28-outside-2_36_1721)"/>
<circle cx="157" cy="792" r="2" fill="black"/>
<path d="M36.064 96.48C35.104 96.8213 34.208 97.0773 33.376 97.248C32.5653 97.4187 31.776 97.504 31.008 97.504C27.7227 97.504 25.216 96.7253 23.488 95.168C21.7813 93.6107 20.928 91.3387 20.928 88.352V81.6H28.352V87.52C28.352 88.8853 28.6507 89.8987 29.248 90.56C29.8453 91.2 30.752 91.52 31.968 91.52C32.8 91.52 33.5467 91.4453 34.208 91.296C34.8693 91.1253 35.424 90.8907 35.872 90.592L36.064 96.48ZM35.072 104V81.6H42.496V104H35.072ZM55.6048 104.32C53.4714 104.32 51.6048 103.925 50.0048 103.136C48.4261 102.347 47.1994 101.269 46.3248 99.904C45.4501 98.5173 45.0128 96.96 45.0128 95.232C45.0128 93.4613 45.4394 91.8933 46.2928 90.528C47.1674 89.1627 48.3514 88.096 49.8448 87.328C51.3594 86.56 53.0554 86.176 54.9328 86.176C56.6608 86.176 58.2501 86.5173 59.7008 87.2C61.1728 87.8827 62.3461 88.896 63.2208 90.24C64.1168 91.584 64.5648 93.248 64.5648 95.232C64.5648 95.488 64.5541 95.776 64.5328 96.096C64.5114 96.3947 64.4901 96.672 64.4688 96.928H50.9968V93.44H60.6287L57.9088 94.368C57.9088 93.6853 57.7808 93.1093 57.5248 92.64C57.2901 92.1493 56.9594 91.776 56.5328 91.52C56.1061 91.2427 55.5941 91.104 54.9968 91.104C54.3994 91.104 53.8768 91.2427 53.4288 91.52C53.0021 91.776 52.6714 92.1493 52.4368 92.64C52.2021 93.1093 52.0848 93.6853 52.0848 94.368V95.456C52.0848 96.2027 52.2341 96.8427 52.5328 97.376C52.8314 97.9093 53.2581 98.3147 53.8128 98.592C54.3674 98.848 55.0394 98.976 55.8288 98.976C56.6394 98.976 57.3008 98.8693 57.8128 98.656C58.3461 98.4427 58.9008 98.1227 59.4768 97.696L63.2528 101.504C62.3994 102.421 61.3434 103.125 60.0848 103.616C58.8474 104.085 57.3541 104.32 55.6048 104.32ZM78.8448 104.32C77.3301 104.32 76.0714 104 75.0688 103.36C74.0874 102.699 73.3621 101.707 72.8928 100.384C72.4234 99.04 72.1888 97.3333 72.1888 95.264C72.1888 93.152 72.4021 91.4347 72.8288 90.112C73.2768 88.768 73.9914 87.776 74.9728 87.136C75.9541 86.496 77.2448 86.176 78.8448 86.176C80.3808 86.176 81.7888 86.5493 83.0688 87.296C84.3488 88.0213 85.3728 89.0667 86.1408 90.432C86.9088 91.776 87.2928 93.3867 87.2928 95.264C87.2928 97.1413 86.9088 98.7627 86.1408 100.128C85.3728 101.472 84.3488 102.507 83.0688 103.232C81.7888 103.957 80.3808 104.32 78.8448 104.32ZM67.1648 110.208V86.496H74.0448V88.864L74.0768 95.264L74.3968 101.664V110.208H67.1648ZM77.1168 98.688C77.6501 98.688 78.1301 98.56 78.5568 98.304C78.9834 98.048 79.3248 97.664 79.5808 97.152C79.8368 96.64 79.9648 96.0107 79.9648 95.264C79.9648 94.496 79.8368 93.856 79.5808 93.344C79.3248 92.832 78.9834 92.448 78.5568 92.192C78.1301 91.936 77.6501 91.808 77.1168 91.808C76.5834 91.808 76.1034 91.936 75.6768 92.192C75.2501 92.448 74.9088 92.832 74.6528 93.344C74.3968 93.856 74.2688 94.496 74.2688 95.264C74.2688 96.0107 74.3968 96.64 74.6528 97.152C74.9088 97.664 75.2501 98.048 75.6768 98.304C76.1034 98.56 76.5834 98.688 77.1168 98.688ZM89.6335 104V86.496H96.8335V92.64H101.762V86.496H108.962V104H101.762V98.304H96.8335V104H89.6335ZM131.2 104V86.496H138.4V104H131.2ZM123.168 91.776C125.515 91.776 127.264 92.288 128.416 93.312C129.568 94.336 130.144 95.7867 130.144 97.664C130.144 99.6267 129.462 101.173 128.096 102.304C126.752 103.435 124.811 104 122.272 104H112.352V86.496H119.552V91.776H123.168ZM121.536 99.136C122.027 99.136 122.411 99.008 122.688 98.752C122.966 98.496 123.104 98.0907 123.104 97.536C123.104 96.9813 122.966 96.5867 122.688 96.352C122.411 96.1173 122.027 96 121.536 96H119.552V99.136H121.536ZM141.79 104V86.496H148.99V94.4L155.038 86.496H161.694V104H154.494V96.064L148.478 104H141.79ZM151.262 85.056C149.022 85.056 147.39 84.608 146.366 83.712C145.363 82.7947 144.862 81.376 144.862 79.456H149.502C149.502 80.1173 149.619 80.64 149.854 81.024C150.088 81.3867 150.547 81.568 151.23 81.568C151.891 81.568 152.35 81.3867 152.606 81.024C152.883 80.64 153.022 80.1173 153.022 79.456H157.726C157.726 81.376 157.203 82.7947 156.158 83.712C155.134 84.608 153.502 85.056 151.262 85.056ZM33.248 143.512C31.456 143.512 29.792 143.235 28.256 142.68C26.7413 142.104 25.4187 141.293 24.288 140.248C23.1787 139.203 22.3147 137.965 21.696 136.536C21.0773 135.107 20.768 133.528 20.768 131.8C20.768 130.072 21.0773 128.493 21.696 127.064C22.3147 125.635 23.1787 124.397 24.288 123.352C25.4187 122.307 26.7413 121.507 28.256 120.952C29.792 120.376 31.456 120.088 33.248 120.088C35.4453 120.088 37.3867 120.472 39.072 121.24C40.7787 122.008 42.1867 123.117 43.296 124.568L38.528 128.824C37.8667 127.992 37.1307 127.352 36.32 126.904C35.5307 126.435 34.6347 126.2 33.632 126.2C32.8427 126.2 32.128 126.328 31.488 126.584C30.848 126.84 30.2933 127.213 29.824 127.704C29.376 128.195 29.024 128.792 28.768 129.496C28.512 130.179 28.384 130.947 28.384 131.8C28.384 132.653 28.512 133.432 28.768 134.136C29.024 134.819 29.376 135.405 29.824 135.896C30.2933 136.387 30.848 136.76 31.488 137.016C32.128 137.272 32.8427 137.4 33.632 137.4C34.6347 137.4 35.5307 137.176 36.32 136.728C37.1307 136.259 37.8667 135.608 38.528 134.776L43.296 139.032C42.1867 140.461 40.7787 141.571 39.072 142.36C37.3867 143.128 35.4453 143.512 33.248 143.512ZM45.2898 143V125.496H64.0738V143H56.8738V129.624L58.4418 131.128H50.9218L52.4898 129.624V143H45.2898ZM67.4773 143V125.496H74.6773V133.4L80.7253 125.496H87.3813V143H80.1813V135.064L74.1653 143H67.4773ZM99.9425 143.32C97.9372 143.32 96.1558 142.936 94.5985 142.168C93.0412 141.4 91.8145 140.333 90.9185 138.968C90.0438 137.581 89.6065 136.003 89.6065 134.232C89.6065 132.461 90.0438 130.893 90.9185 129.528C91.8145 128.163 93.0412 127.096 94.5985 126.328C96.1558 125.56 97.9372 125.176 99.9425 125.176C102.076 125.176 103.9 125.635 105.415 126.552C106.929 127.469 107.975 128.739 108.551 130.36L102.951 133.112C102.588 132.301 102.14 131.715 101.607 131.352C101.095 130.989 100.529 130.808 99.9105 130.808C99.3772 130.808 98.8758 130.936 98.4065 131.192C97.9585 131.448 97.5958 131.832 97.3185 132.344C97.0625 132.835 96.9345 133.464 96.9345 134.232C96.9345 135 97.0625 135.64 97.3185 136.152C97.5958 136.664 97.9585 137.048 98.4065 137.304C98.8758 137.56 99.3772 137.688 99.9105 137.688C100.529 137.688 101.095 137.507 101.607 137.144C102.14 136.781 102.588 136.195 102.951 135.384L108.551 138.136C107.975 139.757 106.929 141.027 105.415 141.944C103.9 142.861 102.076 143.32 99.9425 143.32ZM119.408 143.32C117.424 143.32 115.664 142.936 114.128 142.168C112.613 141.379 111.418 140.301 110.544 138.936C109.669 137.571 109.232 136.003 109.232 134.232C109.232 132.461 109.669 130.893 110.544 129.528C111.418 128.163 112.613 127.096 114.128 126.328C115.664 125.56 117.424 125.176 119.408 125.176C121.392 125.176 123.152 125.56 124.688 126.328C126.224 127.096 127.418 128.163 128.272 129.528C129.146 130.893 129.584 132.461 129.584 134.232C129.584 136.003 129.146 137.571 128.272 138.936C127.418 140.301 126.224 141.379 124.688 142.168C123.152 142.936 121.392 143.32 119.408 143.32ZM119.408 137.688C119.941 137.688 120.421 137.56 120.848 137.304C121.274 137.048 121.616 136.664 121.872 136.152C122.128 135.619 122.256 134.979 122.256 134.232C122.256 133.464 122.128 132.835 121.872 132.344C121.616 131.832 121.274 131.448 120.848 131.192C120.421 130.936 119.941 130.808 119.408 130.808C118.874 130.808 118.394 130.936 117.968 131.192C117.541 131.448 117.2 131.832 116.944 132.344C116.688 132.835 116.56 133.464 116.56 134.232C116.56 134.979 116.688 135.619 116.944 136.152C117.2 136.664 117.541 137.048 117.968 137.304C118.394 137.56 118.874 137.688 119.408 137.688ZM143.917 143L139.117 134.968L144.941 131.576L152.429 143H143.917ZM131.821 143V125.496H139.053V143H131.821ZM136.941 137.176V131.64H143.469V137.176H136.941ZM145.677 135.032L138.893 134.392L144.461 125.496H152.077L145.677 135.032Z" fill="black"/>
<g clip-path="url(#clip1_36_1721)">
<rect x="15" y="174" width="361" height="32" rx="10" fill="black"/>
<path d="M46.615 181.615C46.7312 181.499 46.8691 181.406 47.021 181.343C47.1728 181.28 47.3356 181.248 47.5 181.248C47.6645 181.248 47.8273 181.28 47.9791 181.343C48.131 181.406 48.2689 181.499 48.385 181.615L55 188.233L61.615 181.615C61.7313 181.499 61.8692 181.407 62.0211 181.344C62.1729 181.281 62.3357 181.248 62.5 181.248C62.6644 181.248 62.8271 181.281 62.979 181.344C63.1308 181.407 63.2688 181.499 63.385 181.615C63.5013 181.731 63.5934 181.869 63.6563 182.021C63.7192 182.173 63.7516 182.336 63.7516 182.5C63.7516 182.664 63.7192 182.827 63.6563 182.979C63.5934 183.131 63.5013 183.269 63.385 183.385L56.7675 190L63.385 196.615C63.5013 196.731 63.5934 196.869 63.6563 197.021C63.7192 197.173 63.7516 197.336 63.7516 197.5C63.7516 197.664 63.7192 197.827 63.6563 197.979C63.5934 198.131 63.5013 198.269 63.385 198.385C63.2688 198.501 63.1308 198.593 62.979 198.656C62.8271 198.719 62.6644 198.752 62.5 198.752C62.3357 198.752 62.1729 198.719 62.0211 198.656C61.8692 198.593 61.7313 198.501 61.615 198.385L55 191.768L48.385 198.385C48.2688 198.501 48.1308 198.593 47.979 198.656C47.8271 198.719 47.6644 198.752 47.5 198.752C47.3357 198.752 47.1729 198.719 47.0211 198.656C46.8692 198.593 46.7313 198.501 46.615 198.385C46.4988 198.269 46.4066 198.131 46.3437 197.979C46.2808 197.827 46.2485 197.664 46.2485 197.5C46.2485 197.336 46.2808 197.173 46.3437 197.021C46.4066 196.869 46.4988 196.731 46.615 196.615L53.2325 190L46.615 183.385C46.4986 183.269 46.4063 183.131 46.3433 182.979C46.2802 182.827 46.2478 182.664 46.2478 182.5C46.2478 182.336 46.2802 182.173 46.3433 182.021C46.4063 181.869 46.4986 181.731 46.615 181.615Z" fill="white"/>
<path d="M105.9 191.32C105.113 191.653 104.347 191.907 103.6 192.08C102.867 192.24 102.153 192.32 101.46 192.32C99.7533 192.32 98.4267 191.907 97.48 191.08C96.5467 190.253 96.08 189.073 96.08 187.54V183H98.04V187.32C98.04 188.36 98.36 189.16 99 189.72C99.64 190.28 100.533 190.56 101.68 190.56C102.36 190.56 103.053 190.473 103.76 190.3C104.48 190.127 105.18 189.873 105.86 189.54L105.9 191.32ZM105.56 197V183H107.54V197H105.56ZM116.307 197.12C115.173 197.12 114.173 196.887 113.307 196.42C112.453 195.953 111.787 195.313 111.307 194.5C110.84 193.687 110.607 192.753 110.607 191.7C110.607 190.647 110.833 189.713 111.287 188.9C111.753 188.087 112.387 187.453 113.187 187C114 186.533 114.913 186.3 115.927 186.3C116.953 186.3 117.86 186.527 118.647 186.98C119.433 187.433 120.047 188.073 120.487 188.9C120.94 189.713 121.167 190.667 121.167 191.76C121.167 191.84 121.16 191.933 121.147 192.04C121.147 192.147 121.14 192.247 121.127 192.34H112.107V190.96H120.127L119.347 191.44C119.36 190.76 119.22 190.153 118.927 189.62C118.633 189.087 118.227 188.673 117.707 188.38C117.2 188.073 116.607 187.92 115.927 187.92C115.26 187.92 114.667 188.073 114.147 188.38C113.627 188.673 113.22 189.093 112.927 189.64C112.633 190.173 112.487 190.787 112.487 191.48V191.8C112.487 192.507 112.647 193.14 112.967 193.7C113.3 194.247 113.76 194.673 114.347 194.98C114.933 195.287 115.607 195.44 116.367 195.44C116.993 195.44 117.56 195.333 118.067 195.12C118.587 194.907 119.04 194.587 119.427 194.16L120.487 195.4C120.007 195.96 119.407 196.387 118.687 196.68C117.98 196.973 117.187 197.12 116.307 197.12ZM129.765 197.12C128.885 197.12 128.078 196.92 127.345 196.52C126.625 196.107 126.045 195.5 125.605 194.7C125.178 193.9 124.965 192.9 124.965 191.7C124.965 190.5 125.172 189.5 125.585 188.7C126.012 187.9 126.585 187.3 127.305 186.9C128.038 186.5 128.858 186.3 129.765 186.3C130.805 186.3 131.725 186.527 132.525 186.98C133.325 187.433 133.958 188.067 134.425 188.88C134.892 189.68 135.125 190.62 135.125 191.7C135.125 192.78 134.892 193.727 134.425 194.54C133.958 195.353 133.325 195.987 132.525 196.44C131.725 196.893 130.805 197.12 129.765 197.12ZM124.145 200.88V186.4H125.985V189.26L125.865 191.72L126.065 194.18V200.88H124.145ZM129.605 195.44C130.285 195.44 130.892 195.287 131.425 194.98C131.972 194.673 132.398 194.24 132.705 193.68C133.025 193.107 133.185 192.447 133.185 191.7C133.185 190.94 133.025 190.287 132.705 189.74C132.398 189.18 131.972 188.747 131.425 188.44C130.892 188.133 130.285 187.98 129.605 187.98C128.938 187.98 128.332 188.133 127.785 188.44C127.252 188.747 126.825 189.18 126.505 189.74C126.198 190.287 126.045 190.94 126.045 191.7C126.045 192.447 126.198 193.107 126.505 193.68C126.825 194.24 127.252 194.673 127.785 194.98C128.332 195.287 128.938 195.44 129.605 195.44ZM137.915 197V186.4H139.835V190.9H145.875V186.4H147.795V197H145.875V192.56H139.835V197H137.915ZM162.008 197V186.4H163.928V197H162.008ZM156.308 190C157.655 190.013 158.675 190.32 159.368 190.92C160.075 191.52 160.428 192.367 160.428 193.46C160.428 194.607 160.041 195.493 159.268 196.12C158.508 196.733 157.415 197.033 155.988 197.02L151.528 197V186.4H153.448V189.98L156.308 190ZM155.848 195.56C156.701 195.573 157.355 195.4 157.808 195.04C158.261 194.68 158.488 194.147 158.488 193.44C158.488 192.747 158.261 192.24 157.808 191.92C157.368 191.6 156.715 191.433 155.848 191.42L153.448 191.38V195.54L155.848 195.56ZM167.661 197V186.4H169.581V194.12L176.081 186.4H177.821V197H175.901V189.28L169.421 197H167.661ZM172.621 185.02C171.647 185.02 170.881 184.787 170.321 184.32C169.774 183.84 169.494 183.153 169.481 182.26H170.781C170.794 182.767 170.961 183.167 171.281 183.46C171.614 183.753 172.054 183.9 172.601 183.9C173.147 183.9 173.587 183.753 173.921 183.46C174.254 183.167 174.427 182.767 174.441 182.26H175.781C175.767 183.153 175.481 183.84 174.921 184.32C174.361 184.787 173.594 185.02 172.621 185.02ZM191.539 197.12C190.459 197.12 189.492 196.887 188.639 196.42C187.799 195.953 187.139 195.313 186.659 194.5C186.179 193.687 185.939 192.753 185.939 191.7C185.939 190.647 186.179 189.713 186.659 188.9C187.139 188.087 187.799 187.453 188.639 187C189.492 186.533 190.459 186.3 191.539 186.3C192.499 186.3 193.352 186.493 194.099 186.88C194.859 187.253 195.445 187.813 195.859 188.56L194.399 189.5C194.052 188.98 193.625 188.6 193.119 188.36C192.625 188.107 192.092 187.98 191.519 187.98C190.825 187.98 190.205 188.133 189.659 188.44C189.112 188.747 188.679 189.18 188.359 189.74C188.039 190.287 187.879 190.94 187.879 191.7C187.879 192.46 188.039 193.12 188.359 193.68C188.679 194.24 189.112 194.673 189.659 194.98C190.205 195.287 190.825 195.44 191.519 195.44C192.092 195.44 192.625 195.32 193.119 195.08C193.625 194.827 194.052 194.44 194.399 193.92L195.859 194.84C195.445 195.573 194.859 196.14 194.099 196.54C193.352 196.927 192.499 197.12 191.539 197.12ZM198.344 197V186.4H208.164V197H206.244V187.6L206.704 188.08H199.804L200.264 187.6V197H198.344ZM211.88 197V186.4H213.8V194.12L220.3 186.4H222.04V197H220.12V189.28L213.64 197H211.88ZM230.386 197.12C229.306 197.12 228.34 196.887 227.486 196.42C226.646 195.953 225.986 195.313 225.506 194.5C225.026 193.687 224.786 192.753 224.786 191.7C224.786 190.647 225.026 189.713 225.506 188.9C225.986 188.087 226.646 187.453 227.486 187C228.34 186.533 229.306 186.3 230.386 186.3C231.346 186.3 232.2 186.493 232.946 186.88C233.706 187.253 234.293 187.813 234.706 188.56L233.246 189.5C232.9 188.98 232.473 188.6 231.966 188.36C231.473 188.107 230.94 187.98 230.366 187.98C229.673 187.98 229.053 188.133 228.506 188.44C227.96 188.747 227.526 189.18 227.206 189.74C226.886 190.287 226.726 190.94 226.726 191.7C226.726 192.46 226.886 193.12 227.206 193.68C227.526 194.24 227.96 194.673 228.506 194.98C229.053 195.287 229.673 195.44 230.366 195.44C230.94 195.44 231.473 195.32 231.966 195.08C232.473 194.827 232.9 194.44 233.246 193.92L234.706 194.84C234.293 195.573 233.706 196.14 232.946 196.54C232.2 196.927 231.346 197.12 230.386 197.12ZM241.576 197.12C240.509 197.12 239.562 196.887 238.736 196.42C237.909 195.953 237.256 195.313 236.776 194.5C236.296 193.673 236.056 192.74 236.056 191.7C236.056 190.647 236.296 189.713 236.776 188.9C237.256 188.087 237.909 187.453 238.736 187C239.562 186.533 240.509 186.3 241.576 186.3C242.629 186.3 243.569 186.533 244.396 187C245.236 187.453 245.889 188.087 246.356 188.9C246.836 189.7 247.076 190.633 247.076 191.7C247.076 192.753 246.836 193.687 246.356 194.5C245.889 195.313 245.236 195.953 244.396 196.42C243.569 196.887 242.629 197.12 241.576 197.12ZM241.576 195.44C242.256 195.44 242.862 195.287 243.396 194.98C243.942 194.673 244.369 194.24 244.676 193.68C244.982 193.107 245.136 192.447 245.136 191.7C245.136 190.94 244.982 190.287 244.676 189.74C244.369 189.18 243.942 188.747 243.396 188.44C242.862 188.133 242.256 187.98 241.576 187.98C240.896 187.98 240.289 188.133 239.756 188.44C239.222 188.747 238.796 189.18 238.476 189.74C238.156 190.287 237.996 190.94 237.996 191.7C237.996 192.447 238.156 193.107 238.476 193.68C238.796 194.24 239.222 194.673 239.756 194.98C240.289 195.287 240.896 195.44 241.576 195.44ZM257.528 197L253.428 191.84L255.008 190.88L259.788 197H257.528ZM249.848 197V186.4H251.768V197H249.848ZM251.188 192.52V190.88H254.688V192.52H251.188ZM255.168 191.92L253.388 191.68L257.448 186.4H259.508L255.168 191.92Z" fill="white"/>
</g>
<rect x="15" y="216" width="361" height="68.0912" rx="10" fill="#192959"/>
<path d="M27.616 258.546V241.746H42.088V258.546H39.736V243.21L40.312 243.834H29.392L29.992 243.21V258.546H27.616ZM54.7429 258.546V255.858L54.6229 255.354V250.77C54.6229 249.794 54.3349 249.042 53.7589 248.514C53.1989 247.97 52.3509 247.698 51.2149 247.698C50.4629 247.698 49.7269 247.826 49.0069 248.082C48.2869 248.322 47.6789 248.65 47.1829 249.066L46.2229 247.338C46.8789 246.81 47.6629 246.41 48.5749 246.138C49.5029 245.85 50.4709 245.706 51.4789 245.706C53.2229 245.706 54.5669 246.13 55.5109 246.978C56.4549 247.826 56.9269 249.122 56.9269 250.866V258.546H54.7429ZM50.5669 258.69C49.6229 258.69 48.7909 258.53 48.0709 258.21C47.3669 257.89 46.8229 257.45 46.4389 256.89C46.0549 256.314 45.8629 255.666 45.8629 254.946C45.8629 254.258 46.0229 253.634 46.3429 253.074C46.6789 252.514 47.2149 252.066 47.9509 251.73C48.7029 251.394 49.7109 251.226 50.9749 251.226H55.0069V252.882H51.0709C49.9189 252.882 49.1429 253.074 48.7429 253.458C48.3429 253.842 48.1429 254.306 48.1429 254.85C48.1429 255.474 48.3909 255.978 48.8869 256.362C49.3829 256.73 50.0709 256.914 50.9509 256.914C51.8149 256.914 52.5669 256.722 53.2069 256.338C53.8629 255.954 54.3349 255.394 54.6229 254.658L55.0789 256.242C54.7749 256.994 54.2389 257.594 53.4709 258.042C52.7029 258.474 51.7349 258.69 50.5669 258.69ZM61.0758 258.546V245.826H66.9798C68.4678 245.826 69.6358 246.114 70.4838 246.69C71.3478 247.25 71.7798 248.05 71.7798 249.09C71.7798 250.13 71.3718 250.938 70.5558 251.514C69.7558 252.074 68.6918 252.354 67.3638 252.354L67.7238 251.73C69.2438 251.73 70.3718 252.01 71.1078 252.57C71.8438 253.13 72.2118 253.954 72.2118 255.042C72.2118 256.146 71.7958 257.01 70.9637 257.634C70.1478 258.242 68.8918 258.546 67.1958 258.546H61.0758ZM63.3318 256.77H67.0278C67.9878 256.77 68.7078 256.626 69.1878 256.338C69.6678 256.034 69.9078 255.554 69.9078 254.898C69.9078 254.226 69.6838 253.738 69.2358 253.434C68.8038 253.114 68.1158 252.954 67.1718 252.954H63.3318V256.77ZM63.3318 251.298H66.7878C67.6678 251.298 68.3318 251.138 68.7798 250.818C69.2438 250.482 69.4758 250.018 69.4758 249.426C69.4758 248.818 69.2438 248.362 68.7798 248.058C68.3318 247.754 67.6678 247.602 66.7878 247.602H63.3318V251.298ZM81.4819 258.69C80.1219 258.69 78.9219 258.41 77.8819 257.85C76.8579 257.29 76.0579 256.522 75.4819 255.546C74.9219 254.57 74.6419 253.45 74.6419 252.186C74.6419 250.922 74.9139 249.802 75.4579 248.826C76.0179 247.85 76.7779 247.09 77.7379 246.546C78.7139 245.986 79.8099 245.706 81.0259 245.706C82.2579 245.706 83.3459 245.978 84.2899 246.522C85.2339 247.066 85.9699 247.834 86.4979 248.826C87.0419 249.802 87.3139 250.946 87.3139 252.258C87.3139 252.354 87.3059 252.466 87.2899 252.594C87.2899 252.722 87.2819 252.842 87.2659 252.954H76.4419V251.298H86.0659L85.1299 251.874C85.1459 251.058 84.9779 250.33 84.6259 249.69C84.2739 249.05 83.7859 248.554 83.1619 248.202C82.5539 247.834 81.8419 247.65 81.0259 247.65C80.2259 247.65 79.5139 247.834 78.8899 248.202C78.2659 248.554 77.7779 249.058 77.4259 249.714C77.0739 250.354 76.8979 251.09 76.8979 251.922V252.306C76.8979 253.154 77.0899 253.914 77.4739 254.586C77.8739 255.242 78.4259 255.754 79.1299 256.122C79.8339 256.49 80.6419 256.674 81.5539 256.674C82.3059 256.674 82.9859 256.546 83.5939 256.29C84.2179 256.034 84.7619 255.65 85.2259 255.138L86.4979 256.626C85.9219 257.298 85.2019 257.81 84.3379 258.162C83.4899 258.514 82.5379 258.69 81.4819 258.69ZM88.5653 258.522L88.7093 256.578C88.8213 256.594 88.9253 256.61 89.0213 256.626C89.1173 256.642 89.2053 256.65 89.2853 256.65C89.7973 256.65 90.1973 256.474 90.4853 256.122C90.7893 255.77 91.0133 255.306 91.1573 254.73C91.3013 254.138 91.4053 253.474 91.4693 252.738C91.5333 252.002 91.5813 251.266 91.6133 250.53L91.8293 245.826H101.597V258.546H99.2933V247.17L99.8453 247.842H93.3173L93.8453 247.146L93.6773 250.674C93.6293 251.794 93.5413 252.842 93.4133 253.818C93.2853 254.794 93.0853 255.65 92.8133 256.386C92.5573 257.122 92.1973 257.698 91.7333 258.114C91.2853 258.53 90.7013 258.738 89.9813 258.738C89.7733 258.738 89.5493 258.714 89.3093 258.666C89.0853 258.634 88.8373 258.586 88.5653 258.522ZM112.882 258.546V241.746H120.106C121.93 241.746 123.362 242.114 124.402 242.85C125.442 243.586 125.962 244.658 125.962 246.066C125.962 247.442 125.466 248.498 124.474 249.234C123.482 249.954 122.178 250.314 120.562 250.314L120.994 249.594C122.866 249.594 124.298 249.97 125.29 250.722C126.298 251.458 126.802 252.538 126.802 253.962C126.802 255.402 126.274 256.53 125.218 257.346C124.178 258.146 122.626 258.546 120.562 258.546H112.882ZM115.258 256.65H120.514C121.794 256.65 122.754 256.418 123.394 255.954C124.05 255.474 124.378 254.746 124.378 253.77C124.378 252.794 124.05 252.082 123.394 251.634C122.754 251.186 121.794 250.962 120.514 250.962H115.258V256.65ZM115.258 249.138H119.938C121.106 249.138 121.994 248.906 122.602 248.442C123.226 247.978 123.538 247.298 123.538 246.402C123.538 245.49 123.226 244.802 122.602 244.338C121.994 243.874 121.106 243.642 119.938 243.642H115.258V249.138ZM128.315 258.522L128.459 256.578C128.571 256.594 128.675 256.61 128.771 256.626C128.867 256.642 128.955 256.65 129.035 256.65C129.547 256.65 129.947 256.474 130.235 256.122C130.539 255.77 130.763 255.306 130.907 254.73C131.051 254.138 131.155 253.474 131.219 252.738C131.283 252.002 131.331 251.266 131.363 250.53L131.579 245.826H141.347V258.546H139.043V247.17L139.595 247.842H133.067L133.595 247.146L133.427 250.674C133.379 251.794 133.291 252.842 133.163 253.818C133.035 254.794 132.835 255.65 132.563 256.386C132.307 257.122 131.947 257.698 131.483 258.114C131.035 258.53 130.451 258.738 129.731 258.738C129.523 258.738 129.299 258.714 129.059 258.666C128.835 258.634 128.587 258.586 128.315 258.522ZM153.602 258.546V255.858L153.482 255.354V250.77C153.482 249.794 153.194 249.042 152.618 248.514C152.058 247.97 151.21 247.698 150.074 247.698C149.322 247.698 148.586 247.826 147.866 248.082C147.146 248.322 146.538 248.65 146.042 249.066L145.082 247.338C145.738 246.81 146.522 246.41 147.434 246.138C148.362 245.85 149.33 245.706 150.338 245.706C152.082 245.706 153.426 246.13 154.37 246.978C155.314 247.826 155.786 249.122 155.786 250.866V258.546H153.602ZM149.426 258.69C148.482 258.69 147.65 258.53 146.93 258.21C146.226 257.89 145.682 257.45 145.298 256.89C144.914 256.314 144.722 255.666 144.722 254.946C144.722 254.258 144.882 253.634 145.202 253.074C145.538 252.514 146.074 252.066 146.81 251.73C147.562 251.394 148.57 251.226 149.834 251.226H153.866V252.882H149.93C148.778 252.882 148.002 253.074 147.602 253.458C147.202 253.842 147.002 254.306 147.002 254.85C147.002 255.474 147.25 255.978 147.746 256.362C148.242 256.73 148.93 256.914 149.81 256.914C150.674 256.914 151.426 256.722 152.066 256.338C152.722 255.954 153.194 255.394 153.482 254.658L153.938 256.242C153.634 256.994 153.098 257.594 152.33 258.042C151.562 258.474 150.594 258.69 149.426 258.69ZM168.623 257.466V247.842H163.103L162.983 250.29C162.951 251.09 162.895 251.866 162.815 252.618C162.751 253.354 162.639 254.034 162.479 254.658C162.335 255.282 162.119 255.794 161.831 256.194C161.543 256.594 161.159 256.842 160.679 256.938L158.399 256.53C158.895 256.546 159.295 256.386 159.599 256.05C159.903 255.698 160.135 255.218 160.295 254.61C160.471 254.002 160.599 253.314 160.679 252.546C160.759 251.762 160.823 250.954 160.871 250.122L161.063 245.826H170.927V257.466H168.623ZM157.895 261.498V256.53H172.871V261.498H170.711V258.546H160.079V261.498H157.895ZM175.873 258.546V245.826H178.177V255.09L185.977 245.826H188.065V258.546H185.761V249.282L177.985 258.546H175.873ZM192.537 258.546V245.826H194.913L200.385 255.234H199.425L205.041 245.826H207.201V258.546H205.113V248.418L205.497 248.634L200.361 257.106H199.353L194.193 248.466L194.649 248.37V258.546H192.537ZM211.685 258.546V245.826H213.989V255.09L221.789 245.826H223.877V258.546H221.573V249.282L213.797 258.546H211.685ZM235.093 258.69C234.037 258.69 233.069 258.45 232.189 257.97C231.325 257.474 230.629 256.746 230.101 255.786C229.589 254.826 229.333 253.626 229.333 252.186C229.333 250.746 229.581 249.546 230.077 248.586C230.589 247.626 231.277 246.906 232.141 246.426C233.021 245.946 234.005 245.706 235.093 245.706C236.341 245.706 237.445 245.978 238.405 246.522C239.365 247.066 240.125 247.826 240.685 248.802C241.245 249.762 241.525 250.89 241.525 252.186C241.525 253.482 241.245 254.618 240.685 255.594C240.125 256.57 239.365 257.33 238.405 257.874C237.445 258.418 236.341 258.69 235.093 258.69ZM228.349 263.202V245.826H230.557V249.258L230.413 252.21L230.653 255.162V263.202H228.349ZM234.901 256.674C235.717 256.674 236.445 256.49 237.085 256.122C237.741 255.754 238.253 255.234 238.621 254.562C239.005 253.874 239.197 253.082 239.197 252.186C239.197 251.274 239.005 250.49 238.621 249.834C238.253 249.162 237.741 248.642 237.085 248.274C236.445 247.906 235.717 247.722 234.901 247.722C234.101 247.722 233.373 247.906 232.717 248.274C232.077 248.642 231.565 249.162 231.181 249.834C230.813 250.49 230.629 251.274 230.629 252.186C230.629 253.082 230.813 253.874 231.181 254.562C231.565 255.234 232.077 255.754 232.717 256.122C233.373 256.49 234.101 256.674 234.901 256.674ZM250.321 258.69C249.041 258.69 247.905 258.41 246.913 257.85C245.921 257.29 245.137 256.522 244.561 255.546C243.985 254.554 243.697 253.434 243.697 252.186C243.697 250.922 243.985 249.802 244.561 248.826C245.137 247.85 245.921 247.09 246.913 246.546C247.905 245.986 249.041 245.706 250.321 245.706C251.585 245.706 252.713 245.986 253.705 246.546C254.713 247.09 255.497 247.85 256.057 248.826C256.633 249.786 256.921 250.906 256.921 252.186C256.921 253.45 256.633 254.57 256.057 255.546C255.497 256.522 254.713 257.29 253.705 257.85C252.713 258.41 251.585 258.69 250.321 258.69ZM250.321 256.674C251.137 256.674 251.865 256.49 252.505 256.122C253.161 255.754 253.673 255.234 254.041 254.562C254.409 253.874 254.593 253.082 254.593 252.186C254.593 251.274 254.409 250.49 254.041 249.834C253.673 249.162 253.161 248.642 252.505 248.274C251.865 247.906 251.137 247.722 250.321 247.722C249.505 247.722 248.777 247.906 248.137 248.274C247.497 248.642 246.985 249.162 246.601 249.834C246.217 250.49 246.025 251.274 246.025 252.186C246.025 253.082 246.217 253.874 246.601 254.562C246.985 255.234 247.497 255.754 248.137 256.122C248.777 256.49 249.505 256.674 250.321 256.674ZM260.248 258.546V245.826H266.152C267.64 245.826 268.808 246.114 269.656 246.69C270.52 247.25 270.952 248.05 270.952 249.09C270.952 250.13 270.544 250.938 269.728 251.514C268.928 252.074 267.864 252.354 266.536 252.354L266.896 251.73C268.416 251.73 269.544 252.01 270.28 252.57C271.016 253.13 271.384 253.954 271.384 255.042C271.384 256.146 270.968 257.01 270.136 257.634C269.32 258.242 268.064 258.546 266.368 258.546H260.248ZM262.504 256.77H266.2C267.16 256.77 267.88 256.626 268.36 256.338C268.84 256.034 269.08 255.554 269.08 254.898C269.08 254.226 268.856 253.738 268.408 253.434C267.976 253.114 267.288 252.954 266.344 252.954H262.504V256.77ZM262.504 251.298H265.96C266.84 251.298 267.504 251.138 267.952 250.818C268.416 250.482 268.648 250.018 268.648 249.426C268.648 248.818 268.416 248.362 267.952 248.058C267.504 247.754 266.84 247.602 265.96 247.602H262.504V251.298ZM274.99 258.546V245.826H277.294V255.09L285.094 245.826H287.182V258.546H284.878V249.282L277.102 258.546H274.99ZM299.67 253.338C298.998 253.658 298.302 253.914 297.582 254.106C296.878 254.282 296.15 254.37 295.398 254.37C293.862 254.37 292.646 254.01 291.75 253.29C290.87 252.57 290.43 251.458 290.43 249.954V245.826H292.734V249.81C292.734 250.722 293.014 251.394 293.574 251.826C294.15 252.258 294.918 252.474 295.878 252.474C296.486 252.474 297.11 252.394 297.75 252.234C298.406 252.074 299.046 251.85 299.67 251.562V253.338ZM299.502 258.546V245.826H301.806V258.546H299.502Z" fill="white"/>
<path d="M355.904 241.702C355.954 241.652 356.012 241.613 356.077 241.586C356.141 241.559 356.211 241.546 356.28 241.546C356.35 241.546 356.42 241.559 356.484 241.586C356.549 241.613 356.607 241.652 356.657 241.702L359.844 244.889C359.893 244.938 359.933 244.997 359.959 245.062C359.986 245.126 360 245.195 360 245.265C360 245.335 359.986 245.404 359.959 245.469C359.933 245.533 359.893 245.592 359.844 245.641L349.219 256.266C349.168 256.316 349.108 256.356 349.041 256.383L343.729 258.508C343.632 258.546 343.526 258.556 343.424 258.535C343.323 258.514 343.229 258.464 343.156 258.39C343.082 258.317 343.032 258.223 343.011 258.121C342.99 258.019 342.999 257.914 343.038 257.817L345.163 252.505C345.189 252.438 345.229 252.377 345.28 252.326L355.904 241.702ZM354.907 244.203L357.343 246.639L358.717 245.265L356.28 242.829L354.907 244.203ZM356.592 247.39L354.156 244.954L347.25 251.86V252.171H347.781C347.922 252.171 348.057 252.227 348.156 252.327C348.256 252.426 348.312 252.561 348.312 252.702V253.234H348.843C348.984 253.234 349.119 253.29 349.219 253.389C349.319 253.489 349.375 253.624 349.375 253.765V254.296H349.686L356.592 247.39ZM346.221 252.888L346.109 253.001L344.485 257.061L348.545 255.437L348.657 255.325C348.556 255.287 348.469 255.219 348.407 255.13C348.345 255.041 348.312 254.935 348.312 254.827V254.296H347.781C347.64 254.296 347.505 254.24 347.405 254.14C347.306 254.041 347.25 253.906 347.25 253.765V253.234H346.718C346.61 253.234 346.505 253.2 346.416 253.139C346.327 253.077 346.259 252.99 346.221 252.888Z" fill="white"/>
</g>
<defs>
<clipPath id="clip0_36_1721">
<rect width="393" height="852" fill="white"/>
</clipPath>
<clipPath id="clip1_36_1721">
<rect x="15" y="174" width="361" height="32" rx="10" fill="white"/>
</clipPath>
</defs>
</svg>
